<svg width="490.00000000000006" height="149" viewBox="0 0 490.00000000000006 149" xmlns="http://www.w3.org/2000/svg" xmlns:usvg="https://github.com/RazrFalcon/resvg" usvg:version="0.14.0" data-svg-colors="#004b9d">  <defs id="db" />  <path id="svg_1" fill="#004b9d" fill-rule="evenodd" stroke="none" d="M 71.39374 40.36263 C 73.5513 40.15543 75.72734 40.15392 77.88507 40.35826 L 79.3641 36.21006 L 79.42992 36.21796 C 82.90773 36.64699 86.31242 37.55585 89.5446 38.89844 L 89.60567 38.92384 L 88.7916 43.2631 C 90.76188 44.15564 92.64599 45.23369 94.41085 46.47907 L 97.78654 43.61729 L 97.83947 43.65715 C 100.56445 45.70056 103.0019 48.1106 105.08617 50.79411 L 105.14351 50.86777 L 102.11862 50.86777 L 102.20819 50.76417 C 100.94392 49.2914 99.56057 47.91954 98.07526 46.66592 L 94.73791 49.49457 L 94.68465 49.45168 C 92.08876 47.36993 89.17125 45.70442 86.05952 44.50646 L 85.99557 44.48191 L 86.79861 40.19933 C 84.96183 39.54931 83.07161 39.04829 81.1529 38.70234 L 79.68829 42.80984 L 79.62061 42.79908 C 77.97382 42.53655 76.30599 42.41378 74.6385 42.41378 C 72.97101 42.41378 71.30285 42.53655 69.65622 42.79908 L 69.58837 42.80984 L 68.12427 38.70234 C 66.20556 39.04829 64.31534 39.5493 62.47839 40.19882 L 63.28143 44.48191 L 63.21765 44.50646 C 60.10574 45.70442 57.18823 47.36976 54.59218 49.45168 L 54.53875 49.49457 L 51.20208 46.66609 C 49.71678 47.91972 48.33292 49.29124 47.06865 50.76384 L 47.15822 50.86778 L 44.13333 50.86778 L 44.19067 50.79412 C 46.27494 48.11044 48.71256 45.70057 51.43754 43.65716 L 51.49047 43.6173 L 54.86124 46.47471 C 56.62661 45.22781 58.51241 44.15077 60.48507 43.26059 L 59.67151 38.92385 L 59.73275 38.89845 C 62.96476 37.55585 66.36928 36.647 69.84743 36.21797 L 69.91308 36.21007 L 71.3938 40.36265 Z" class="color-1" />  <path id="svg_2" fill="#004b9d" fill-rule="evenodd" stroke="none" d="M 74.6383 44.62217 C 81.50299 44.62217 87.8218 46.93719 92.84563 50.82202 L 90.97136 50.82202 C 86.3448 47.61143 80.71402 45.72628 74.6383 45.72628 C 68.56258 45.72628 62.93196 47.61143 58.3054 50.82202 L 56.43113 50.82202 C 61.4548 46.93719 67.77344 44.62217 74.63829 44.62217 Z" class="color-1" />  <path id="svg_3" fill="#004b9d" fill-rule="evenodd" stroke="none" d="M 112.53996 59.83438 C 114.78488 62.31674 116.25101 65.28683 116.19503 69.54301 C 117.34005 68.65669 117.75955 64.94341 119.73984 63.54766 C 120.21396 68.81175 118.16209 72.57364 114.94687 75.92904 C 114.72346 72.55599 112.05565 74.66314 111.3164 66.38523 C 112.66091 67.15954 112.70281 69.24499 114.76282 70.38863 C 112.38305 66.13413 112.61612 64.13967 112.53996 59.83438 Z M 106.17247 100.62705 C 106.20775 101.08905 106.27374 101.54061 106.32056 101.79524 C 105.1216 102.14052 103.9513 102.58721 102.84208 103.33158 C 104.5686 101.11461 105.23627 97.73802 104.84866 95.3236 C 102.01936 99.28395 98.09678 102.35192 98.48032 106.6863 C 98.44605 106.95657 98.45555 107.45758 98.47014 107.84642 C 97.0856 108.25628 95.77214 108.86796 94.50396 109.87436 C 94.26647 110.06272 93.96487 110.43626 93.90855 110.3562 C 93.85223 110.27598 94.18641 109.9349 94.39132 109.67607 C 95.99994 107.64292 97.02436 104.88407 97.92426 102.72797 C 91.92097 107.31311 90.33541 107.13198 87.18364 111.09266 C 86.28781 112.21813 82.3028 113.02961 81.00919 113.28541 C 80.70063 113.34663 80.70148 113.76506 80.99765 113.73933 C 82.46819 113.61218 85.10666 113.78625 86.11682 114.17004 C 91.36678 116.16552 95.4673 115.11219 100.94864 112.22048 C 98.06234 112.46939 95.17248 112.29751 92.27754 111.50066 C 92.75472 111.34358 93.20899 110.91488 93.70907 111.02874 C 99.98462 112.4598 104.34621 110.13014 108.64809 105.66677 C 104.9138 106.60876 102.02496 106.94613 99.14036 107.66393 L 99.14528 107.65048 C 99.32814 107.1017 100.19547 106.68983 100.19768 106.68882 C 104.48887 104.83361 109.205 106.4828 113.63563 99.34819 C 111.39767 100.73165 109.09389 101.05002 106.80945 101.66473 C 106.81454 101.31155 106.77603 100.86654 107.022 100.4222 C 110.29234 97.26745 114.43952 98.63493 118.49374 89.74888 C 116.41388 90.03714 114.3084 91.78909 112.5147 93.11924 C 112.63989 92.66532 112.88162 92.06659 113.17711 91.53581 C 116.70665 88.43756 120.14816 86.11968 120.68895 81.14571 C 119.57192 82.25941 117.66525 83.37429 116.25204 84.18291 C 118.7855 80.41749 121.21413 76.08395 120.70133 70.58558 C 119.70593 75.11051 116.89936 75.62666 115.2792 79.07977 C 114.36522 76.43124 113.33708 74.96688 111.88163 73.25597 C 111.46959 81.01016 114.47429 80.71618 114.72993 86.30268 L 113.60052 87.18463 C 113.60374 84.49271 112.6577 81.73621 111.29572 79.48913 C 111.1042 83.55139 109.5273 88.41336 111.96713 91.85823 C 112.17493 92.54878 112.14898 93.09168 112.08825 93.4314 C 111.14475 94.11102 110.30914 94.62566 109.64317 94.67712 C 110.05809 92.31164 110.05521 89.64075 109.12681 87.24987 C 108.48407 91.59619 105.48497 95.09 106.17249 100.62705 Z" class="color-1" />  <path id="svg_4" fill="#004b9d" fill-rule="evenodd" stroke="none" d="M 36.73663 59.83438 C 34.49188 62.31674 33.02558 65.28683 33.08173 69.54301 C 31.93671 68.65669 31.51721 64.94341 29.53692 63.54766 C 29.06263 68.81175 31.1145 72.57364 34.32972 75.92904 C 34.5533 72.55599 37.22111 74.66314 37.96036 66.38523 C 36.61585 67.15954 36.57378 69.24499 34.51394 70.38863 C 36.89371 66.13413 36.66047 64.13967 36.73663 59.83438 Z M 43.10429 100.62705 C 43.06901 101.08905 43.00285 101.54061 42.9562 101.79524 C 44.15499 102.14052 45.32563 102.58721 46.43468 103.33158 C 44.70816 101.11461 44.04032 97.73802 44.4281 95.3236 C 47.25723 99.28395 51.17998 102.35192 50.79644 106.6863 C 50.83054 106.95657 50.82121 107.45758 50.80645 107.84642 C 52.19099 108.25628 53.50445 108.86796 54.7728 109.87436 C 55.01012 110.06272 55.31172 110.43626 55.36804 110.3562 C 55.42453 110.27598 55.09018 109.9349 54.88544 109.67607 C 53.27665 107.64292 52.2524 104.88407 51.3525 102.72797 C 57.35579 107.31311 58.94118 107.13198 62.09312 111.09266 C 62.98895 112.21813 66.97396 113.02961 68.26757 113.28541 C 68.57613 113.34663 68.57511 113.76506 68.27894 113.73933 C 66.8084 113.61218 64.16993 113.78625 63.15994 114.17004 C 57.90998 116.16552 53.80929 115.11219 48.32795 112.22048 C 51.21425 112.46939 54.10411 112.29751 56.99922 111.50066 C 56.52204 111.34358 56.0676 110.91488 55.56752 111.02874 C 49.29214 112.4598 44.93071 110.13014 40.6285 105.66677 C 44.36296 106.60876 47.25163 106.94613 50.1364 107.66393 L 50.13148 107.65048 C 49.94862 107.1017 49.08112 106.68983 49.07891 106.68882 C 44.78789 104.83361 40.07176 106.4828 35.64096 99.34819 C 37.87892 100.73165 40.1827 101.05002 42.46714 101.66473 C 42.46222 101.31155 42.50056 100.86654 42.25476 100.4222 C 38.98425 97.26745 34.83724 98.63493 30.78285 89.74888 C 32.86305 90.03714 34.96819 91.78909 36.76206 93.11924 C 36.6367 92.66532 36.39514 92.06659 36.09965 91.53581 C 32.56994 88.43756 29.12843 86.11968 28.58781 81.14571 C 29.70467 82.25941 31.61151 83.37429 33.02472 84.18291 C 30.49126 80.41749 28.06246 76.08395 28.57543 70.58558 C 29.57066 75.11051 32.3774 75.62666 33.99756 79.07977 C 34.91154 76.43124 35.93951 74.96688 37.39496 73.25597 C 37.80717 81.01016 34.80247 80.71618 34.54683 86.30268 L 35.67607 87.18463 C 35.67302 84.49271 36.61906 81.73621 37.98104 79.48913 C 38.17256 83.55139 39.74946 88.41336 37.30963 91.85823 C 37.10183 92.54878 37.12761 93.09168 37.18851 93.4314 C 38.13201 94.11102 38.96745 94.62566 39.63359 94.67712 C 39.2185 92.31164 39.22138 89.64075 40.15012 87.24987 C 40.79252 91.59619 43.79162 95.09 43.10427 100.62705 Z" class="color-1" />  <path id="svg_5" fill="#004b9d" fill-rule="evenodd" stroke="none" d="M 74.64169 114.02879 L 76.73122 110.44046 L 72.55215 110.44046 L 74.64168 114.02879 Z M 115.29955 50.82202 L 74.64169 120.6528 L 33.97722 50.82202 C 61.08466 50.82202 88.1921 50.82202 115.29955 50.82202 Z M 74.61218 100.50411 L 72.68312 97.19177 L 66.91901 97.19177 L 65.87815 98.97971 L 66.76584 100.50411 L 74.61219 100.50411 Z M 72.04021 96.08799 L 69.80106 92.24302 L 67.56208 96.08799 L 72.04021 96.08799 Z M 64.99028 96.08799 L 66.91917 92.77582 L 62.2653 92.77582 L 64.19419 96.08799 L 64.99028 96.08799 Z M 67.56208 91.67187 L 68.51541 90.03479 L 67.53985 88.35953 L 62.38574 88.35953 L 61.03971 90.67102 L 61.62257 91.67187 L 67.56208 91.67187 Z M 66.89695 87.25558 L 64.96823 83.94358 L 64.95737 83.94358 L 63.02882 87.25558 L 66.89695 87.25558 Z M 60.45719 87.25558 L 62.38591 83.94358 L 57.12204 83.94358 L 59.05076 87.25558 L 60.45718 87.25558 Z M 63.02882 82.83946 L 64.95737 79.52712 L 54.55042 79.52712 L 56.47914 82.83946 L 63.02882 82.83946 Z M 64.9684 79.52712 L 66.89712 82.83946 L 72.70534 82.83946 L 74.63423 79.52712 L 64.9684 79.52712 Z M 67.53986 83.94357 L 69.80123 87.82655 L 72.0626 83.94357 L 67.53986 83.94357 Z M 74.64475 79.52712 L 76.57364 82.83946 L 82.38203 82.83946 L 84.31058 79.52712 L 74.64475 79.52712 Z M 77.21655 83.94357 L 79.47792 87.82672 L 81.73912 83.94357 L 77.21655 83.94357 Z M 84.32127 79.52712 L 86.25016 82.83946 L 92.80425 82.83946 L 94.73297 79.52712 L 84.32127 79.52712 Z M 86.89307 83.94357 L 88.82179 87.25557 L 90.23262 87.25557 L 92.16134 83.94357 L 86.89306 83.94357 Z M 88.24131 90.67522 L 86.89307 88.35952 L 81.73896 88.35952 L 80.76374 90.03461 L 81.71674 91.67186 L 87.66083 91.67186 L 88.24131 90.67521 Z M 86.25016 87.25558 L 84.32127 83.94358 L 84.31058 83.94358 L 82.38203 87.25558 L 86.25016 87.25558 Z M 82.35998 92.77581 L 84.28853 96.08798 L 85.0892 96.08798 L 87.01809 92.77581 L 82.35998 92.77581 Z M 83.40322 98.9834 L 82.35998 97.19176 L 76.59587 97.19176 L 74.66698 100.5041 L 82.51774 100.5041 L 83.40322 98.9834 Z M 81.71673 96.08798 L 79.47792 92.24284 L 77.2386 96.08798 L 81.71673 96.08798 Z M 71.08705 90.03461 L 72.04038 91.67186 L 77.23877 91.67186 L 78.19193 90.03478 L 77.21654 88.35952 L 72.06243 88.35952 L 71.08704 90.03461 Z M 72.68329 92.77581 L 74.61218 96.08798 L 74.66697 96.08798 L 76.59586 92.77581 L 72.68329 92.77581 Z M 76.57364 87.25558 L 74.64492 83.94358 L 74.63406 83.94358 L 72.70534 87.25558 L 76.57364 87.25558 Z M 39.76339 54.13402 L 109.52017 54.13402 L 101.80528 67.38271 L 47.4781 67.38271 L 39.76338 54.13402 Z M 49.40717 70.69488 L 99.87623 70.69488 L 97.94751 74.00688 L 51.33572 74.00688 L 49.40717 70.69488 Z M 77.37414 109.3365 L 79.30303 106.02433 L 69.98054 106.02433 L 71.90943 109.3365 L 77.37414 109.3365 Z M 79.94577 104.92038 L 81.87483 101.60821 L 67.40891 101.60821 L 69.33763 104.92038 L 79.94577 104.92038 Z M 95.37571 78.42333 L 53.90769 78.42333 L 51.97863 75.11099 L 97.30477 75.11099 L 95.37571 78.42333 Z" class="color-1" />  <path id="svg_6" fill="#004b9d" fill-rule="evenodd" stroke="none" d="M 74.6383 0 C 115.86001 0 149.2766 33.13081 149.2766 74 C 149.2766 114.86919 115.86002 148 74.6383 148 C 33.41659 148 0 114.86919 0 74 C 0 33.13081 33.41658 0 74.6383 0 Z M 74.6383 4.41615 C 35.87524 4.41615 4.45425 35.56844 4.45425 74 C 4.45425 112.43156 35.87524 143.58388 74.6383 143.58388 C 113.40136 143.58388 144.82222 112.43156 144.82222 74 C 144.82222 35.56843 113.40136 4.41615 74.6383 4.41615 Z" class="color-1" />  <path id="svg_7" fill="#004b9d" fill-rule="evenodd" stroke="none" d="M 88.97513 21.30006 C 88.74358 22.07706 88.5122 22.62449 88.41212 23.24576 C 88.37327 23.49164 90.00463 23.08229 90.16324 23.06496 C 90.1819 23.06277 90.19988 23.06143 90.21718 23.06025 C 90.24059 23.05403 90.264 23.04797 90.28775 23.04242 C 90.57986 22.97313 90.893 22.94454 91.1885 22.86263 L 91.94099 22.61927 L 92.07483 22.56629 L 92.22462 22.51886 C 92.27347 22.49918 92.34421 22.45562 92.34794 22.39962 C 92.3515 22.34412 92.3454 22.28727 92.34998 22.24052 C 92.35473 22.19225 92.29078 22.1751 92.34811 22.14331 C 92.39866 22.13255 92.28195 22.0054 92.44446 22.04274 L 92.56117 22.09622 L 92.65752 22.14735 C 92.73827 22.19898 92.81647 22.293 92.88364 22.36582 C 92.99475 22.48725 93.08567 22.59102 93.14233 22.72052 C 93.18779 22.82177 93.26514 23.0954 93.26989 23.20102 L 93.25768 23.20573 L 93.25242 23.27149 C 93.25921 23.28848 93.1503 23.54647 93.14148 23.55151 C 93.14046 23.60449 93.11485 23.68774 93.05853 23.70977 L 93.06226 23.71952 C 92.99288 23.77754 92.95929 23.75349 92.87074 23.79318 C 92.83342 23.92873 92.43835 24.02863 92.3291 24.02023 C 92.32079 24.00072 91.694 24.12282 91.12861 24.20893 C 90.30691 24.38737 89.45434 24.50644 88.98072 24.57977 L 88.93271 24.59911 L 88.90981 24.59104 C 88.83704 24.60164 88.77563 24.61139 88.72695 24.6203 C 88.59786 24.64435 88.32526 24.64855 88.36224 24.77301 C 88.444 25.05455 88.37072 25.35761 88.69828 25.96576 C 88.79497 26.14218 88.89353 26.81996 88.97139 27.06231 C 89.06486 27.35326 89.25519 27.90456 89.36019 28.18291 C 89.45043 28.42206 89.62397 28.75927 89.73372 29.00868 C 89.81379 29.19166 89.8679 29.39146 89.95441 29.56688 C 90.19359 30.04855 90.36865 30.32656 90.65822 30.69269 C 90.75457 30.81344 90.92777 31.03864 91.03039 31.14241 C 91.13251 31.24466 91.2828 31.37383 91.38882 31.46078 C 91.63089 31.6589 91.93622 31.80387 92.17829 31.93404 C 92.61306 32.16815 92.96708 32.32035 93.25919 32.40983 C 93.40134 32.45204 93.57708 32.49157 93.6585 32.52184 C 93.8646 32.5992 93.78352 32.64243 93.34994 32.73846 C 93.08362 32.79682 92.64681 32.94835 92.04072 32.98535 C 91.82936 32.99813 91.53691 33.00099 91.28399 33.04791 C 90.9851 33.10425 90.58578 32.93371 90.31675 32.77697 C 90.01531 32.60156 89.83448 32.49325 89.58886 32.1626 C 89.47894 32.01662 89.38937 31.7847 89.2937 31.62442 C 88.96733 31.07783 88.70066 30.60877 88.57751 30.18108 C 88.45249 29.79006 88.3675 29.31309 88.27014 28.99674 C 87.97277 28.03003 87.78567 27.38825 87.59398 26.92424 C 87.52867 26.76649 87.51595 26.71536 87.4006 26.69316 C 87.30289 26.67466 87.26964 26.78045 87.24199 26.82384 C 86.96074 27.25186 86.74836 27.76818 86.44183 28.1962 C 86.17245 28.57158 85.81572 28.86405 85.4829 29.17014 C 85.06645 29.55225 84.60929 29.88979 83.96588 29.9833 C 83.76402 30.01105 83.47361 30.00853 83.24342 29.99961 C 82.82646 29.98313 82.37779 29.82891 81.76609 29.69671 C 81.11708 29.55645 80.02888 29.46327 79.34883 29.23522 C 78.67675 29.01036 78.63468 28.8854 78.98124 28.73892 C 79.76681 28.72227 81.65414 28.75742 82.38542 28.64844 C 83.08906 28.54501 83.62408 28.26717 84.21355 27.82754 C 84.50803 27.60722 84.72669 27.32905 84.99115 27.01219 C 85.20234 26.75992 85.51158 26.39547 85.61472 26.05994 C 85.67765 26.02311 85.92515 25.58214 86.15195 25.10769 C 85.9735 25.12114 85.81269 25.10231 85.66968 25.12249 C 85.40692 25.15949 85.20726 25.15226 85.04119 25.18707 C 84.70939 25.25771 84.5367 25.35407 84.43781 25.36501 C 84.26631 25.38418 84.24324 25.38469 84.02662 25.4116 C 83.85767 25.43296 83.83952 25.51385 83.67005 25.54127 C 83.50975 25.56667 83.49923 25.57709 83.37659 25.62368 C 83.29347 25.65446 83.16489 25.66203 83.12859 25.7071 C 82.94691 25.85611 82.72639 25.80162 82.5783 25.89176 C 82.43377 25.90471 82.1381 25.79724 82.02801 25.58096 C 82.02597 25.57575 81.91402 25.31523 81.90231 25.28832 C 81.82241 25.09811 81.73488 24.96003 81.72182 24.95549 C 81.73352 24.47281 82.142 24.3016 82.42596 24.25619 L 82.95131 24.17176 C 83.24562 24.20069 83.63018 24.05958 84.13297 23.97246 C 84.79861 23.85709 85.59639 23.86079 86.31987 23.67091 C 86.46491 23.63341 86.58992 23.60061 86.70103 23.57269 C 86.83351 23.24154 86.98805 22.88146 87.14377 22.50104 C 87.41841 21.44435 88.36936 18.95846 88.6842 17.49645 L 88.96053 15.75503 L 88.93661 15.7518 C 88.97206 15.53083 88.69963 15.19512 88.73203 14.98997 L 88.75612 15.0225 C 88.76307 14.97707 88.77156 14.94453 88.75001 14.89968 L 88.75171 14.89759 L 88.76104 14.91123 C 88.78089 14.78523 88.8674 14.66419 88.96969 14.59239 L 89.12965 14.60795 L 89.12219 14.60628 C 89.53847 14.6658 89.96645 14.8603 90.341 15.02426 L 90.33795 15.04385 L 90.41581 15.09903 C 90.4438 15.10347 90.49214 15.2007 90.49401 15.23741 C 90.56831 15.26942 90.64413 15.34163 90.64329 15.42747 C 90.70979 15.46893 90.79494 15.56188 90.78103 15.64814 L 90.79579 15.65055 C 90.81699 15.77973 90.90351 15.81555 90.88858 15.95545 C 91.03107 16.10227 90.72573 16.6014 90.63294 16.73018 L 90.60393 16.72646 C 90.57034 16.9364 90.47331 17.22853 90.34304 17.3989 L 90.2494 17.64192 C 90.25008 17.64192 90.23328 17.67505 90.22989 17.68935 C 89.83702 18.48216 89.28843 20.26842 88.96121 21.29668 L 88.97512 21.30004 Z" class="color-1" />  <path id="svg_8" fill="#004b9d" fill-rule="evenodd" stroke="none" d="M 107.49492 29.12724 C 107.78669 29.29475 107.71799 29.47386 107.76243 29.71655 C 107.78669 29.84538 107.86964 29.95083 107.83809 30.10539 C 107.78856 30.35077 107.27847 30.87869 107.11885 30.91031 C 106.91309 30.95051 106.76398 30.92292 106.54193 30.93537 C 106.40215 30.98414 106.26204 31.03477 106.12124 31.08387 C 105.63728 31.25693 105.11125 30.20428 105.25832 29.79762 C 105.58622 29.58083 105.94347 29.60539 106.31547 29.51726 C 106.50665 29.47219 106.64201 29.31595 106.82606 29.25187 C 107.01978 29.1846 107.29679 29.16929 107.49492 29.12725 Z M 120.06011 28.12555 C 119.12035 28.34873 117.89577 28.54146 117.4057 28.69098 C 117.30833 28.71688 117.25032 28.93215 117.27407 28.99892 C 117.33073 29.1597 117.42216 29.35462 117.41877 29.51103 C 117.34685 29.57006 116.95924 29.52297 116.80758 29.55543 C 116.55483 29.61093 116.44423 29.57746 116.13736 29.58251 C 115.69072 29.59008 115.526 29.55728 115.34314 29.71554 C 115.22219 29.82082 115.40726 30.66341 115.23593 30.94646 C 115.04849 31.25406 114.46325 31.16829 114.40219 31.52231 C 114.55656 31.68393 114.59693 31.83984 114.51771 32.02517 C 114.68616 32.08538 115.01999 32.01323 115.32618 31.98397 C 115.52431 31.96581 115.65103 32.02753 115.78504 31.91216 C 115.81252 31.88744 115.8417 31.86305 115.87003 31.83866 C 115.82287 31.47976 115.74959 31.16745 115.95078 30.79946 C 115.98437 30.73639 116.10616 30.36488 116.42779 30.23689 C 116.63746 30.15381 116.71583 29.8055 116.90022 29.77153 C 117.18011 29.71855 117.4098 29.78431 117.59436 29.8642 C 117.9874 30.2162 117.57197 30.69502 117.78163 31.15096 C 118.05016 31.31157 119.31443 30.77776 119.61213 30.66609 C 119.61518 30.65247 119.61841 30.63851 119.62129 30.62589 C 119.13411 30.23722 118.53496 29.88539 118.57076 29.39194 C 119.01842 28.90959 119.95411 29.56584 120.48998 29.78263 C 120.89082 29.94425 121.11796 29.74193 121.43992 29.87513 C 121.90607 30.06703 122.12388 32.23186 121.53288 32.45622 C 120.32069 32.07478 117.61149 32.63601 116.2071 32.96985 C 116.1959 32.99356 116.18539 33.0161 116.1747 33.03864 C 116.24357 33.14897 116.21236 33.20009 116.18742 33.31412 C 116.76468 33.78032 117.47052 34.13417 118.11173 34.60407 C 118.31648 34.75442 118.54463 35.10744 118.77754 35.83348 C 118.92037 36.27849 118.3482 36.41943 118.23607 36.5538 C 117.98586 36.7203 117.75397 36.58895 117.26 36.57449 C 116.97366 36.56692 116.58045 36.42649 116.24204 36.34627 C 115.90769 36.26521 115.62899 36.24502 115.25563 36.11922 C 114.95657 36.01797 114.39814 35.93994 114.08143 35.83634 C 113.4336 35.62325 112.77119 35.46617 112.15135 35.27865 C 112.03278 35.26654 111.92082 35.25174 111.89096 35.22836 C 111.82124 35.23425 111.75 35.18463 111.69894 35.14242 L 111.68859 35.15503 L 111.48486 35.06455 L 111.49317 35.06707 C 111.48503 35.0595 111.47247 35.05126 111.45907 35.04268 C 111.40292 35.02115 111.34932 35.00013 111.29605 34.97709 C 111.19597 34.93538 111.0986 34.89199 111.0014 34.85045 C 110.90454 34.82388 110.82108 34.81362 110.77901 34.83632 L 110.68079 34.7561 L 110.57104 34.88812 L 110.83719 35.10491 L 110.84143 35.10003 L 110.84296 35.10087 C 110.88265 35.26754 111.34999 35.30269 111.47874 35.40713 L 111.49384 35.38897 L 111.83446 35.51696 C 111.86296 35.57835 112.15032 35.73307 112.21274 35.78336 C 112.21732 35.8318 112.23021 35.87754 112.26855 35.91151 L 112.26109 35.90512 L 112.27822 36.05732 L 112.27771 36.05883 C 112.3247 36.09667 112.31215 36.19455 112.34794 36.24265 L 112.30112 36.29899 C 112.38712 36.36946 112.36626 36.3592 112.37491 36.45153 C 112.37728 36.4781 112.34149 36.51964 112.32385 36.53999 L 112.33725 36.54974 L 112.3303 36.78082 L 112.23819 36.91284 L 112.256 36.92646 L 112.14608 37.05882 L 112.12861 37.04469 L 112.11012 37.06706 L 111.88587 37.06841 L 111.87756 37.0785 L 111.6511 37.09818 L 111.64313 37.09196 L 111.58766 37.11651 L 111.46179 37.16528 L 111.40004 37.11533 C 111.32472 37.20598 111.31573 37.16663 111.20632 37.17857 L 111.15747 37.13871 L 111.13304 37.16865 C 110.77545 37.13333 110.71473 37.09263 110.37512 37.09549 C 110.30235 37.09667 110.18055 37.10138 110.08725 37.1409 C 110.01159 37.17285 109.99989 37.22163 109.94849 37.2709 C 109.88827 37.32775 109.80057 37.39552 109.84213 37.47474 C 109.88132 37.54874 110.07385 37.62913 110.12711 37.64864 L 110.12541 37.64814 C 110.10522 37.63183 110.16324 37.66984 110.188 37.67623 L 110.1785 37.66866 C 110.24669 37.72231 110.35373 37.71861 110.41853 37.77159 C 110.42345 37.76503 110.96559 37.97576 111.44599 38.18919 C 111.95675 38.41607 112.61611 38.75495 112.62969 38.75798 L 112.61968 38.75008 C 113.07701 39.11133 112.90873 39.04019 113.11806 39.55819 L 113.09092 39.59216 C 113.16573 39.65439 113.1625 39.67558 113.17116 39.76286 L 113.11348 39.83266 L 113.18574 39.89136 C 113.18184 40.05685 113.35843 40.39221 113.23001 40.53096 C 112.91025 40.87893 113.05376 40.80728 112.5983 40.65171 C 112.42324 40.59268 112.1559 40.37539 111.99169 40.30139 C 111.64768 40.14683 111.35065 39.95847 111.01461 39.81215 C 110.61784 39.63943 110.29198 39.38766 109.93558 39.23327 C 109.56256 39.07165 109.39513 38.833 109.08759 38.73411 C 109.10065 38.71746 108.87029 38.72368 108.84128 38.70047 C 108.18616 39.42264 107.20144 41.03584 106.62334 41.76491 C 106.47118 42.2116 106.13293 42.3813 105.79418 42.63946 L 105.78061 42.62886 L 105.48511 42.97834 L 105.49308 42.97447 C 105.47171 42.98507 105.45797 42.9965 105.44406 43.01332 L 105.45186 43.01046 L 105.12837 43.20336 L 105.0997 43.18015 C 105.00521 43.29367 104.89224 43.4035 104.82778 43.34345 C 104.64967 43.17628 104.11346 42.68048 103.56605 42.19712 L 103.5691 42.18518 L 103.47614 41.90818 L 103.50209 41.87656 L 103.43169 41.82005 C 103.4266 41.76707 103.31278 41.56761 103.34552 41.52741 L 103.33789 41.52236 C 103.33229 41.45273 103.23441 41.2341 103.18573 41.18246 L 103.18844 41.17893 L 103.09803 41.03429 C 103.09803 41.03429 102.92246 40.82019 102.91381 40.73308 C 102.8826 40.40647 102.76742 39.42648 102.52128 39.22432 C 102.52332 39.18143 102.50483 39.14141 102.4726 39.11433 L 102.40288 38.78957 L 102.4614 38.68799 L 102.37099 38.59263 C 102.37523 38.57447 102.37828 38.55782 102.38303 38.53898 C 102.52654 38.5119 102.76708 38.80622 103.12721 39.18362 C 103.35706 39.42446 103.60286 39.57582 103.84594 39.83852 C 104.03542 40.0432 104.14314 40.30909 104.29733 40.4988 C 104.40708 40.63486 104.49512 40.74788 104.58876 40.81885 C 104.64813 40.86325 104.73091 40.88478 104.75568 40.9053 C 104.78333 40.87133 104.81081 40.83702 104.84033 40.80052 C 105.2103 40.32642 105.6583 39.59466 105.96177 39.20481 C 106.22708 38.86323 106.63097 38.37836 107.00128 37.98347 C 106.64675 37.6942 104.19658 36.72631 104.08089 36.77592 L 104.11906 36.75843 C 103.80456 36.50246 102.99728 36.33327 102.95233 35.83023 C 102.93248 35.83948 102.94334 35.78751 102.93096 35.76985 L 102.94572 35.75202 C 102.84072 35.66625 102.82647 35.54532 102.75624 35.44139 L 102.78864 35.4022 C 102.70586 35.33005 102.5347 34.90186 102.60883 34.81239 L 102.57304 34.58686 L 102.58593 34.57139 L 102.53589 34.46964 C 102.50502 34.50782 102.53097 34.36991 102.56201 34.33123 L 102.533 34.30684 C 102.52842 34.26076 102.5291 34.23789 102.50908 34.19298 C 102.56251 34.15161 102.67651 33.91195 102.76981 33.93314 C 102.98948 33.66994 103.40932 34.1955 103.60288 34.195 C 104.51177 34.64035 104.41186 34.79675 105.17639 35.17735 C 106.02286 35.59932 107.12241 36.20057 107.25439 36.30804 L 107.32156 36.33915 C 107.48865 36.47622 108.0732 36.61682 108.42909 36.62556 C 108.85046 36.63431 109.05656 36.35798 109.28132 36.19686 L 109.44332 36.18324 C 109.56495 36.16356 109.67758 36.10823 109.77682 36.01287 L 110.04603 35.78936 C 109.8021 35.58973 109.69082 35.33762 109.46351 35.14657 L 109.46572 35.14775 L 109.34155 35.02414 L 109.35716 35.00514 C 109.08558 34.78314 108.85505 34.67332 108.7933 34.34032 L 108.80212 34.33057 L 108.79008 34.32082 L 108.86302 34.10471 C 108.93002 34.11833 109.12782 34.1 109.18074 34.05627 C 109.25606 34.09663 109.55207 34.14591 109.62636 34.13902 C 109.67929 34.13196 109.73696 34.20713 109.77258 34.23556 L 109.8289 34.17031 C 109.97241 34.28636 110.65671 34.23439 110.83143 34.21336 L 110.87621 34.25053 L 110.90182 34.22043 C 111.01072 34.25659 111.1159 34.25272 111.20987 34.30688 C 111.23328 34.3057 111.25635 34.30486 111.27891 34.30368 L 111.28841 34.29292 L 111.3337 34.29931 C 111.44498 34.29023 111.55846 34.27677 111.67178 34.27661 C 111.79375 34.27695 111.9247 34.32269 112.03378 34.34775 C 113.56709 34.70699 115.18114 34.84893 116.59147 34.88341 C 116.60317 34.86928 116.61539 34.85499 116.62743 34.84019 C 116.62675 34.83178 116.62624 34.82287 116.62472 34.81446 C 115.63848 33.96296 113.943 33.62928 112.70858 33.20496 C 111.89892 32.92645 110.89334 32.56654 110.1953 32.32285 C 110.09013 32.30755 109.96579 32.23304 109.84246 32.12557 C 109.82448 32.11531 109.80633 32.10774 109.7875 32.10387 C 109.76409 32.08571 109.74221 32.07242 109.70557 32.06973 C 109.69607 32.06687 109.68708 32.06401 109.67673 32.06283 C 109.65926 32.05072 109.62957 32.03676 109.60989 32.03104 C 109.59937 32.02465 109.58869 32.01843 109.57495 32.01422 C 109.55917 32.00093 109.54628 31.99051 109.52644 31.9826 L 109.2077 31.72125 L 109.18768 31.74715 C 109.14137 31.70813 109.10185 31.67063 109.04824 31.64389 L 108.88454 31.50951 C 108.87674 31.50026 108.86775 31.4895 108.85977 31.48126 C 108.8479 31.44191 108.82686 31.4155 108.79582 31.38994 L 108.79769 31.38725 L 108.19668 30.89717 C 108.19023 30.8817 108.18073 30.86824 108.1692 30.85597 C 108.16292 30.83814 108.15173 30.82116 108.13765 30.80652 C 108.12781 30.77944 108.1117 30.74497 108.09456 30.72495 C 108.09083 30.69165 108.07471 30.65936 108.04655 30.63598 L 108.07488 30.65902 C 108.07369 30.64237 108.07217 30.6274 108.06776 30.61109 L 108.09066 30.58284 L 108.24486 30.39464 C 108.2569 30.38034 108.26471 30.36487 108.26946 30.35024 C 108.27981 30.33746 108.28727 30.32384 108.29202 30.3087 L 108.37073 30.21435 L 108.32612 30.21822 C 108.3519 30.2157 108.37718 30.20577 108.39906 30.18896 C 108.40873 30.18425 108.41806 30.18072 108.42807 30.17567 C 108.45182 30.14742 108.52357 30.14691 108.55614 30.14405 C 108.56547 30.14287 108.59397 30.15111 108.61127 30.15095 C 108.63655 30.1565 108.66521 30.16188 108.691 30.16222 L 108.81483 30.26313 L 108.86691 30.20023 C 108.88353 30.20258 108.90033 30.20292 108.91712 30.19973 C 108.93425 30.20763 108.95359 30.21251 108.97412 30.21335 C 108.98786 30.22193 109.01246 30.23101 109.02789 30.23589 C 109.04333 30.24817 109.05825 30.25843 109.07725 30.26414 C 109.10456 30.28617 109.13577 30.31644 109.16885 30.32754 C 109.17784 30.33427 109.187 30.34099 109.1965 30.34638 L 109.33713 30.46226 L 109.368 30.42391 C 109.37903 30.42879 109.39141 30.43282 109.40769 30.43652 C 109.43195 30.45199 109.49318 30.47335 109.52304 30.48008 C 109.5417 30.48933 109.5629 30.49471 109.58563 30.49522 C 109.60429 30.50413 109.62651 30.50901 109.64958 30.50901 C 109.68469 30.51691 109.6947 30.5265 109.72252 30.54937 L 109.73609 30.53272 C 109.74864 30.53491 109.7617 30.53608 109.77426 30.53575 C 109.78936 30.54113 109.80496 30.54349 109.82159 30.54416 C 109.84144 30.55442 109.86502 30.5593 109.8891 30.55728 C 109.91047 30.56468 109.92523 30.57124 109.94779 30.57679 C 109.96882 30.58722 109.99257 30.5926 110.01666 30.59142 C 110.03159 30.59529 110.04736 30.59865 110.06127 30.60218 C 110.07688 30.61446 110.09316 30.62388 110.10843 30.63683 L 110.11318 30.63044 C 110.12692 30.63414 110.14083 30.63649 110.1544 30.63633 C 110.16916 30.64339 110.18612 30.64861 110.2041 30.64978 C 110.21886 30.65483 110.23803 30.6634 110.25126 30.66626 C 110.28485 30.67433 110.31538 30.69401 110.35304 30.69519 C 110.36458 30.70259 110.3795 30.70747 110.39477 30.71167 C 110.48739 30.73 110.57848 30.74917 110.66618 30.76246 C 111.81103 30.93434 113.08446 32.11969 113.90582 30.56468 C 113.88224 30.45738 113.95908 30.06451 113.79301 30.01439 C 113.55061 30.02398 113.15791 30.0857 112.91584 30.09562 C 112.68073 30.08334 112.17132 30.13834 111.81764 30.04887 C 111.6704 30.01221 111.54063 29.96949 111.45191 29.92324 C 111.45123 29.91399 111.44987 29.90524 111.4497 29.89684 C 111.54554 29.77861 111.65563 29.63767 111.78133 29.55392 C 112.32755 29.19401 113.10938 29.1449 113.70327 28.99068 C 113.66544 28.80669 113.59606 28.56585 113.5808 28.31947 C 113.55128 27.84772 113.23712 28.18879 112.98403 28.13144 C 112.73026 28.07342 113.07377 28.20443 112.98708 28.49068 C 112.89904 28.77844 112.17573 28.8146 111.98286 28.86606 C 111.78897 28.91769 111.61323 28.804 111.44767 28.96731 C 111.1045 29.30536 110.77983 30.15484 110.15303 29.76214 C 110.03802 29.69117 109.32896 28.78097 109.44804 28.70646 C 109.51929 28.53643 109.7544 28.23067 109.81987 28.15112 C 110.0638 27.85815 110.44666 27.29692 110.55981 26.84233 C 110.60663 26.6543 110.54963 26.47687 110.52096 26.34031 C 110.50332 26.2579 110.58644 26.23654 110.62834 26.22359 C 110.98915 26.46409 111.31535 27.11731 111.33706 27.50379 C 111.57641 28.00262 112.28921 26.62639 112.59166 26.39715 C 112.83729 26.20929 113.11718 26.44895 113.18045 26.58938 C 113.24372 26.73048 113.1813 27.27724 113.01879 27.47267 C 112.85662 27.6681 113.26204 27.7606 113.26204 27.7606 L 113.67238 27.22965 C 113.67238 27.22965 113.75652 26.91044 113.53447 26.66994 C 113.38231 26.50445 113.27917 25.92977 113.35924 25.68809 C 113.46204 25.37073 113.88849 25.87713 113.97077 25.85812 C 114.25898 25.88469 114.46169 25.97988 114.73937 26.11947 C 114.94038 26.22122 115.03114 26.31019 115.20908 26.4185 C 115.60839 26.66001 115.22706 27.53859 115.68846 27.56769 C 116.81465 27.22325 118.04974 26.89967 119.17458 26.4772 L 119.29027 26.43347 C 119.39307 26.41632 119.67822 26.38655 119.7191 26.32449 C 119.73572 26.31928 119.75133 26.31053 119.76456 26.2996 C 119.78763 26.29035 119.83886 26.26041 119.85497 26.24511 C 119.97236 26.17767 120.09568 26.16068 120.20984 26.07104 C 120.22545 26.06398 120.25428 26.04817 120.26768 26.03707 C 120.29584 26.02614 120.33078 26.00427 120.34944 25.98123 C 120.47717 25.89293 120.73959 25.70289 120.7362 25.54867 C 120.73501 25.50679 120.75215 25.49367 120.77454 25.45768 C 120.93467 25.19868 120.89447 25.37157 120.95164 25.11947 C 120.96572 25.09929 120.99167 25.06969 120.99812 25.04564 L 121.03629 24.98812 C 121.04358 24.99132 121.05071 24.99317 121.05919 24.99468 C 121.26071 25.12704 121.13179 24.99872 121.29651 25.10518 C 121.30618 25.1188 121.31822 25.13158 121.33315 25.14184 C 121.34078 25.1521 121.34893 25.16185 121.35893 25.1706 C 121.39489 25.24208 121.6624 25.46559 121.68157 25.4777 C 121.687 25.48594 121.6926 25.49368 121.69836 25.49973 C 121.70684 25.52546 121.72448 25.5448 121.74382 25.55843 C 121.83814 25.63075 121.78301 25.58366 121.84289 25.6807 C 121.87953 25.74091 121.93568 25.7986 121.98504 25.83173 C 122.00099 25.84603 122.0093 25.86032 122.02914 25.87495 C 122.0366 25.88908 122.04627 25.90253 122.05764 25.91447 C 122.06239 25.92389 122.06799 25.93331 122.0746 25.94172 C 122.08071 25.98023 122.10242 26.00815 122.126 26.03809 C 122.13295 26.05424 122.14296 26.07105 122.15721 26.08569 C 122.16535 26.11277 122.18113 26.13783 122.20471 26.15734 C 122.21709 26.18274 122.2344 26.20864 122.25594 26.2273 C 122.26391 26.23823 122.27392 26.24815 122.28444 26.25757 C 122.29479 26.27153 122.30717 26.28465 122.32244 26.29524 C 122.32668 26.30096 122.33041 26.30567 122.33499 26.31054 C 122.33838 26.32147 122.34279 26.33089 122.34737 26.34031 C 122.35585 26.37983 122.36094 26.39833 122.38062 26.43315 C 122.38435 26.43954 122.38842 26.46796 122.39097 26.47688 C 122.39792 26.51102 122.41675 26.53642 122.42439 26.56719 C 122.43084 26.5983 122.43643 26.63329 122.45119 26.66104 C 122.46086 26.7125 122.47697 26.69333 122.4634 26.74059 C 122.45831 26.76144 122.45628 26.78247 122.45916 26.80282 C 122.45526 26.83511 122.46679 26.86387 122.47086 26.89532 C 122.4673 26.92105 122.46492 26.94308 122.4712 26.96915 C 122.47103 26.97621 122.46984 26.98277 122.46984 26.98967 C 122.46475 27.00851 122.46373 27.02835 122.46662 27.04904 C 122.46458 27.06418 122.46475 27.08991 122.4656 27.10723 C 122.46017 27.12573 122.45848 27.14423 122.46085 27.1634 C 122.44881 27.19653 122.44898 27.23303 122.46085 27.26599 C 122.46221 27.28634 122.4483 27.30938 122.45406 27.34638 C 122.44795 27.36976 122.44863 27.39431 122.45389 27.41634 C 122.45236 27.43047 122.44999 27.44476 122.45016 27.45872 C 122.44354 27.48344 122.43574 27.50884 122.43727 27.53457 C 122.43218 27.54987 122.42947 27.57107 122.42896 27.58755 L 122.33736 27.7258 C 122.30649 27.73673 122.28749 27.76196 122.26747 27.79173 C 122.25526 27.81073 122.23761 27.81914 122.22286 27.83949 C 122.19334 27.85412 122.15433 27.92728 122.09869 27.96361 C 122.0668 27.97976 122.03101 28.02416 121.99674 28.03105 C 121.97197 28.03643 121.94687 28.04064 121.92431 28.05325 C 121.91617 28.05493 121.90769 28.05661 121.89954 28.05998 C 121.8037 28.06603 121.58809 28.07293 121.50192 28.11649 C 121.48122 28.11531 121.42609 28.12086 121.40676 28.12776 C 121.35553 28.12389 121.36164 28.12002 121.31618 28.14845 C 121.29854 28.14492 121.26631 28.14929 121.24951 28.15551 C 121.22525 28.14946 121.19998 28.14912 121.17674 28.15467 C 121.15706 28.15417 121.13772 28.15551 121.11703 28.15534 C 120.87768 28.10169 120.64189 28.11985 120.39236 28.1508 C 120.36624 28.14828 120.33197 28.13583 120.30415 28.13751 C 120.29024 28.13734 120.27565 28.13431 120.26191 28.13381 C 120.24563 28.12792 120.22951 28.12557 120.21407 28.12708 L 120.0575 28.12254 L 120.06004 28.12557 Z" class="color-1" />  <path id="svg_9" fill="#004b9d" fill-rule="evenodd" stroke="none" d="M 65.08527 26.10552 C 65.48577 26.03253 65.81231 25.83525 66.14446 25.64067 C 66.34988 25.52042 66.56617 25.38621 66.79381 25.34232 C 67.54783 25.19768 68.06113 25.87462 67.77615 26.61361 C 67.59006 27.09596 67.39499 27.5746 67.21009 28.05728 C 67.14529 28.22664 67.09847 28.40289 67.0274 28.62674 C 67.24758 28.70595 67.43197 28.78063 67.62162 28.83882 C 67.8167 28.89869 68.0172 28.94107 68.21449 28.99472 C 68.7853 29.14995 68.90591 29.26045 68.91846 29.63532 C 68.93254 30.05594 68.60057 30.51609 68.19549 30.64828 C 67.7307 30.80015 67.31645 30.71488 66.94615 30.40139 C 66.73699 30.2253 66.52648 30.05073 66.31664 29.87498 C 65.86694 30.39634 65.43896 30.87953 65.02574 31.37466 C 64.65136 31.8227 63.9367 31.94631 63.43594 31.63164 C 63.40456 31.6123 63.37657 31.58758 63.34654 31.56554 C 62.70753 31.09699 62.72416 30.93553 63.40082 30.52164 C 63.87511 30.23203 64.33448 29.91652 64.78451 29.59025 C 64.95838 29.46411 65.08849 29.2776 65.24065 29.11564 C 65.14871 28.89768 65.05813 28.71688 64.99502 28.527 C 64.87831 28.17483 64.9767 28.04079 65.34429 28.03355 C 65.54429 28.02951 65.74479 28.0349 65.9799 28.03624 C 66.08287 27.65396 66.17684 27.30532 66.26454 26.97955 C 65.99601 26.75419 65.75683 26.7335 65.49424 26.85695 C 65.37787 26.91178 65.24064 26.99974 65.1314 26.97838 C 64.60927 26.87764 64.44439 27.23721 64.19333 27.57559 C 63.43965 28.58973 62.8344 29.68476 62.25375 30.79879 C 62.00744 31.27172 61.71381 31.72127 61.42153 32.16863 C 61.32484 32.3173 61.17336 32.43553 61.03358 32.55208 C 60.84732 32.70664 60.64868 32.69234 60.48736 32.51592 C 60.27634 32.28484 60.05632 32.05527 59.8889 31.79392 C 59.73674 31.55611 59.71248 31.27827 59.82664 30.9964 C 60.07125 30.39195 60.40017 29.83157 60.8938 29.40792 C 61.7825 28.64437 62.4534 27.73199 62.97112 26.69447 C 63.09376 26.44943 63.26832 26.22995 63.44456 25.95851 C 63.33837 25.80311 63.23014 25.63728 63.11446 25.47684 C 63.02778 25.3576 62.91107 25.25568 62.84271 25.12753 C 62.63389 24.73735 62.79945 24.38602 63.23202 24.30613 C 63.48749 24.25904 63.7511 24.2582 64.00792 24.21649 C 64.55007 24.12853 64.90918 23.77871 65.03929 23.25567 C 65.08543 23.06932 65.0666 22.92452 64.88289 22.83774 C 64.7158 22.7592 64.61962 22.85523 64.50766 22.97498 C 63.88731 23.63812 63.39691 23.69631 62.66002 23.2101 C 62.78012 22.92503 62.90073 22.63895 63.01727 22.36179 C 62.6127 22.06865 62.60421 22.0599 62.3194 22.34396 C 62.11856 22.54426 61.92042 22.66519 61.60219 22.48792 C 61.63289 22.29148 61.67123 22.09807 61.69125 21.90248 C 61.7111 21.70655 61.71279 21.5086 61.72178 21.32141 C 61.43527 21.23547 61.33824 21.41912 61.22696 21.55485 C 61.14554 21.6534 61.07293 21.76844 61.0307 21.88785 C 60.46124 23.50425 59.475 24.90655 58.67925 26.40656 C 58.10844 27.48309 57.54594 28.56433 56.99463 29.65062 C 56.56054 30.50616 56.1692 31.38256 55.72222 32.23053 C 55.34411 32.94783 54.9146 33.63821 54.50392 34.33802 C 54.44845 34.43287 54.37517 34.51831 54.30121 34.60005 C 53.81131 35.13907 53.58672 35.09669 53.29817 34.41724 C 53.25491 34.31599 53.20759 34.21021 53.13702 34.12797 C 52.75942 33.68683 52.81251 33.20936 53.00878 32.72231 C 53.20182 32.2435 53.43574 31.77881 53.59571 31.28974 C 53.67781 31.03814 53.90766 31.16142 54.01894 31.02939 C 54.30426 30.69 54.64862 30.38744 54.87626 30.01458 C 56.84366 26.79659 58.78951 23.56565 60.74504 20.34093 C 60.88041 20.11742 60.98422 19.90988 60.96709 19.62464 C 60.94419 19.23564 61.24868 18.97058 61.53468 18.79113 C 61.75401 18.65322 61.89159 18.48975 62.02271 18.29113 C 62.40998 17.70619 62.80641 17.12714 63.18927 16.5398 C 63.26238 16.42816 63.29241 16.28891 63.39045 16.04082 C 63.01607 16.18677 62.76111 16.27866 62.51209 16.38494 C 61.77979 16.69739 61.04833 17.01261 60.31976 17.33401 C 60.13367 17.41659 59.96031 17.52675 59.78016 17.62345 C 59.00918 18.03718 58.21106 18.19712 57.37002 17.84865 C 56.85298 17.63439 56.69505 17.38901 56.72406 16.9149 C 57.72879 16.66261 58.74828 16.46754 59.72469 16.14369 C 60.69957 15.8209 61.68395 15.48723 62.65628 14.90659 C 61.9976 14.48593 61.41745 14.10495 60.82561 13.74158 C 60.53418 13.56248 60.35064 13.33112 60.34216 12.98702 C 60.33588 12.70812 60.48821 12.56678 60.76217 12.63988 C 61.41814 12.8144 62.08259 12.80625 62.75264 12.8276 C 63.14856 12.84045 63.56501 12.95919 63.92667 13.12669 C 64.44032 13.36458 64.52615 13.66844 64.32955 14.29101 C 64.51818 14.22914 64.66729 14.19669 64.8013 14.13305 C 65.25286 13.91796 65.68865 13.66754 66.14954 13.47543 C 66.87234 13.1742 67.12459 13.40526 67.3312 13.9387 C 67.37106 14.04203 67.42518 14.14015 67.4625 14.24422 C 67.66131 14.79944 67.43672 15.24349 66.8693 15.40331 C 66.33631 15.55328 65.7962 15.67908 65.26831 15.84349 C 65.0846 15.90094 64.87595 16.00442 64.76671 16.15152 C 63.97096 17.21746 63.19659 18.29954 62.41849 19.37859 C 62.37608 19.43712 62.35607 19.51145 62.31959 19.59235 C 62.39491 19.69376 62.46005 19.80796 62.55012 19.89693 C 62.81441 20.15728 62.95011 20.13709 63.15825 19.83403 C 63.29396 19.63642 63.42712 19.43443 63.58301 19.25246 C 64.17876 18.55551 64.69037 17.82123 64.72345 16.86327 C 65.07171 16.64722 65.39469 16.76105 65.68103 16.93004 C 65.79027 16.99479 65.88221 17.21208 65.86355 17.34309 C 65.80995 17.71948 65.69527 18.08746 65.60181 18.47109 C 65.97772 18.73749 66.02538 18.75229 66.32411 18.46369 C 66.54904 18.24724 66.77058 18.00994 66.92291 17.74236 C 67.04912 17.52002 67.20416 17.47445 67.41773 17.48773 C 67.81603 17.51262 68.15292 17.80408 68.30491 18.22672 C 68.44842 18.62497 68.28659 18.905 67.97481 19.13457 C 67.67609 19.35388 67.39585 19.60632 67.07253 19.7814 C 66.42267 20.13458 66.02267 20.70455 65.6332 21.29134 C 65.59418 21.34987 65.58231 21.42656 65.5533 21.50762 C 65.7762 21.72256 65.98162 21.70692 66.17399 21.49215 C 66.34702 21.29925 66.49086 21.07691 66.68051 20.90318 C 66.8532 20.74509 67.05472 20.59103 67.27168 20.51485 C 67.60416 20.39847 67.81993 20.55269 67.95598 20.88603 C 68.03706 21.08465 68.14054 21.27941 68.26522 21.45398 C 68.48252 21.75721 68.4793 22.01386 68.1838 22.27723 C 67.96277 22.47367 67.71002 22.63462 67.47779 22.81894 C 67.1163 23.10569 67.09747 23.17767 67.23623 23.61494 C 67.37702 24.05844 67.30968 24.251 66.89612 24.48108 C 66.53989 24.67937 66.16704 24.84923 65.80979 25.04617 C 65.38927 25.27776 65.15382 25.62623 65.08529 26.10555 Z M 64.30971 21.21496 C 64.52972 20.82696 64.73786 20.50069 64.8985 20.15272 C 64.94464 20.05164 64.8968 19.83603 64.81402 19.77027 C 64.74328 19.71443 64.53175 19.75934 64.43167 19.8288 C 64.06611 20.08191 63.91734 20.4837 63.7221 20.89541 C 63.91073 20.99834 64.07036 21.08478 64.30971 21.21496 Z M 62.05004 24.44489 C 61.97455 24.72828 61.92417 24.91748 61.89194 25.03824 C 62.02832 25.38873 62.25953 25.69869 62.22917 25.98023 C 62.1949 26.2949 61.96912 26.62521 61.74368 26.87462 C 61.32571 27.33746 60.76728 27.43063 59.93099 26.76799 C 60.18001 25.69163 60.79086 25.0004 62.05004 24.44489 Z" class="color-1" />  <path id="svg_10" fill="#004b9d" fill-rule="evenodd" stroke="none" d="M 34.13532 20.36261 C 34.19096 20.35908 34.17043 20.30862 34.41182 20.34798 C 34.60656 20.44082 34.61555 20.42686 34.81317 20.47916 C 35.01062 20.53163 35.37126 20.79534 35.71103 21.02895 C 36.05097 21.26239 36.52679 21.86818 36.65809 22.39005 C 36.78922 22.91158 36.75393 23.55908 36.63638 24.01435 C 36.60771 24.12602 36.43486 24.54513 36.31001 25.0776 C 36.16582 25.69315 36.05675 26.473 35.84284 27.30416 C 35.73869 27.70864 35.55548 28.18812 35.45981 28.56519 C 35.35362 28.98295 35.30036 29.40189 35.2152 29.71909 C 35.11427 30.09414 34.99502 30.38122 34.95142 30.5124 C 34.71122 31.23945 34.40588 32.22987 34.21352 32.36122 C 34.21352 32.36122 34.28561 31.06319 34.33091 30.08656 C 34.35059 29.66409 34.36518 29.30166 34.36687 29.13078 C 34.35211 28.63448 34.46356 28.11261 34.47119 27.6237 C 34.49172 26.2954 34.45677 25.00494 34.44507 23.57573 C 34.46288 23.04898 34.39181 22.57993 34.28935 22.0779 C 34.18621 21.57201 33.89445 20.54896 34.13532 20.36261 Z M 41.59813 35.62158 L 42.12382 36.16834 L 42.16521 36.1939 C 42.36131 36.49747 42.54536 36.86696 42.66189 37.14329 C 42.72448 37.29179 42.81524 37.38665 42.87495 37.45274 C 42.95875 37.54558 43.0668 37.4963 43.30276 37.40817 C 43.43032 37.36041 43.54449 37.41742 43.6578 37.40195 C 43.80708 37.38126 43.91021 37.45829 43.96619 37.50336 C 44.03235 37.55667 44.22403 37.70804 44.28137 37.86697 C 44.3516 38.06156 44.35567 38.2775 44.37959 38.40465 C 44.42302 38.6359 44.41148 38.7982 44.41148 38.7982 C 44.40486 39.10631 44.40486 39.25734 44.45372 39.53383 C 44.52039 39.90904 44.51156 40.18839 44.51156 40.18839 C 44.66202 40.24389 44.74837 40.14567 44.85456 40.04359 C 45.13411 39.775 45.35735 39.22034 45.35735 39.22034 C 45.51324 38.71176 45.72851 38.68973 45.87846 38.58209 C 46.02451 38.47731 46.58905 38.57906 46.8893 38.82158 C 47.21499 39.08462 47.21669 39.53635 47.10558 39.69209 C 46.80567 40.11339 46.51882 40.42368 46.2123 40.8438 C 45.98991 41.14871 45.74768 41.56261 45.528 41.87223 C 45.509 41.94102 45.15752 42.22289 45.07355 42.6388 C 45.00027 43.00241 44.39994 43.29168 44.21674 43.25266 C 43.87442 43.18001 42.98419 42.95296 42.86087 42.58885 C 42.7596 42.29016 42.61372 41.78511 42.57691 41.70421 C 42.53145 41.60481 42.56521 40.7449 42.33349 40.25532 C 42.17997 39.9309 42.05529 39.73782 41.98201 39.5244 C 41.93282 39.38145 41.88328 39.34663 41.77133 39.31266 C 41.77133 39.31266 41.56862 39.32477 41.33605 39.34276 C 41.18932 39.35403 41.02155 39.49496 40.86685 39.48471 C 40.76846 39.47815 40.51809 39.48471 40.44192 39.45965 C 40.34523 39.42753 40.31096 39.31922 40.41308 39.14364 C 40.44378 39.09083 40.46668 38.93207 40.52029 38.86967 C 40.56728 38.81518 40.62699 38.75161 40.66329 38.70872 C 40.68772 38.68013 40.75218 38.61723 40.77067 38.59806 C 41.00833 38.35285 41.34522 38.18938 41.34522 38.18938 L 41.31893 38.11874 C 41.27567 38.02405 41.25464 37.95897 41.15099 37.85352 C 41.07109 37.77246 40.89484 37.64262 40.75117 37.47612 C 40.63361 37.33989 40.25924 36.67103 40.06246 36.23443 L 39.79393 35.84896 L 39.79088 35.84274 L 39.67282 35.98082 C 39.57952 36.14446 39.58088 36.39976 39.41125 36.52758 C 39.43449 36.56105 39.20023 36.83973 39.25298 36.91574 L 39.20209 37.09586 L 39.17648 37.11335 C 39.21906 37.19862 39.16172 37.24033 39.17852 37.32425 C 39.12237 37.36276 38.72424 38.76237 38.67013 38.6845 C 38.66606 38.70603 38.66318 38.72318 38.66555 38.74269 C 38.49609 38.88396 38.33443 38.91239 38.12154 38.96822 C 38.07642 38.90347 37.9017 39.01649 37.8274 39.04525 L 37.70306 38.98218 L 37.69678 38.98655 C 37.21604 38.65775 37.099 38.12395 37.14988 37.60208 C 37.16192 37.59367 37.22672 37.1791 37.21366 37.13336 C 37.25115 37.02001 37.12647 36.98755 37.19229 36.72283 L 37.19144 36.72132 C 37.23928 36.5967 37.28084 36.39606 37.23979 36.26555 L 37.23674 36.1717 C 37.27847 36.03783 37.28831 35.9201 37.23148 35.7504 C 37.24302 35.69675 37.2325 35.65218 37.27134 35.6061 C 37.26099 35.58087 37.34598 35.20061 37.35683 35.12241 C 37.37278 34.98517 37.41586 34.77495 37.44572 34.6367 C 37.48864 34.60744 37.5268 34.2218 37.53647 34.14981 C 37.54156 34.14611 37.54885 33.37617 37.55259 33.28838 L 37.557 33.24818 L 37.61942 33.03022 C 37.56259 32.94041 37.70441 32.53728 37.69966 32.53055 C 37.71035 32.47202 37.77158 32.01877 37.77091 32.01793 L 37.80246 31.84235 C 37.77532 31.78836 37.7821 31.73673 37.75479 31.68275 C 37.72901 31.63145 37.66896 31.57764 37.643 31.52634 L 37.49796 31.62557 C 37.54563 31.69402 37.3821 31.9172 37.30814 31.96782 C 37.31611 31.97926 37.02333 32.58791 36.9285 32.65266 C 36.95157 32.68596 36.75157 33.19891 36.69373 33.23844 C 36.71154 33.26367 36.30205 33.90562 36.36736 33.99963 C 36.34463 34.09886 36.09781 34.53512 36.1046 34.54488 C 36.01147 34.62107 35.83743 35.08373 35.87678 35.14008 C 35.85117 35.19541 35.84862 35.30423 35.79994 35.33753 L 35.80588 35.34611 C 35.76449 35.42347 35.60605 35.67406 35.64049 35.72351 C 35.60962 35.77531 35.61929 35.88631 35.56534 35.92314 L 35.56839 35.92768 C 35.5024 36.13993 35.37925 36.27128 35.34702 36.49765 L 35.33057 36.50875 L 35.34092 36.52372 L 35.28918 36.66583 C 35.25763 36.83553 35.1511 37.10176 35.0919 37.30963 L 35.07867 37.37707 C 35.05424 37.45914 34.95603 37.81602 34.98809 37.86227 C 34.95671 37.91474 34.97452 38.02759 34.91667 38.06712 L 34.9221 38.07486 C 34.85001 38.46521 34.46986 39.1038 34.4205 39.39828 C 34.38047 39.61574 33.69854 40.1371 33.48735 40.16721 C 33.47785 40.15359 33.14961 40.21481 33.10127 40.22776 C 33.0933 40.21649 32.64123 40.36802 32.56455 40.37929 C 32.5615 40.37509 31.61359 40.65814 31.48501 40.67378 C 31.46669 40.64754 31.1203 40.7905 31.07365 40.57523 L 30.96593 40.08027 C 31.03497 39.98861 31.0309 39.45026 31.12488 39.38602 L 31.11911 39.37761 C 31.14099 39.28982 31.34014 38.77232 31.3337 38.76307 C 31.36118 38.70757 31.5471 38.45462 31.53421 38.43596 L 31.59765 38.35961 C 31.88077 38.10414 34.07242 34.39321 34.07225 34.39304 C 34.30702 34.10057 34.48531 33.47409 34.78742 33.2674 L 34.7803 33.25731 C 34.82322 33.16531 35.30429 32.47224 35.30039 32.46669 C 35.3489 32.35317 35.82048 31.67607 35.81658 31.67052 C 35.86832 31.60442 36.17043 31.25578 36.15042 31.22702 C 36.35992 31.08373 36.37841 30.69136 36.55143 30.57296 L 36.54549 30.56472 C 36.5996 30.45961 36.6359 30.30269 36.74108 30.23071 L 36.73514 30.22196 C 36.78026 30.15721 36.82606 30.06841 36.77568 29.99441 L 36.78603 29.98735 L 36.16908 29.10103 C 36.19877 29.04418 36.41047 28.52518 36.40623 28.51895 C 36.43015 28.43469 37.15499 27.21403 37.18976 27.19031 C 37.09663 27.17349 37.33683 27.13077 37.40316 27.05341 L 37.54633 27.13061 C 37.5711 27.18813 37.63471 27.20797 37.66931 27.25776 C 37.70256 27.23506 37.81316 27.41484 37.83657 27.44511 L 37.84386 27.40559 C 37.83521 27.45234 38.2067 28.02988 38.27066 28.12171 L 38.3799 27.97119 C 38.53545 27.92544 39.37836 27.1809 39.31949 27.09631 C 39.67436 26.85346 39.59396 26.90929 39.95341 26.8659 L 40.1607 27.00852 C 40.66943 27.27946 40.22329 27.77997 40.2713 27.84876 C 40.23262 27.96296 40.22414 28.24029 40.15069 28.29057 C 40.20039 28.36188 40.05129 28.99609 40.01617 29.02014 L 40.02957 29.03948 L 39.60142 29.80101 L 39.59972 29.80202 C 39.61346 29.82187 39.5222 30.48433 39.4652 30.53176 C 39.48115 30.5543 39.61329 31.54522 39.84212 31.87385 C 39.83805 31.87671 40.01379 32.16161 40.02855 32.18566 L 40.28537 31.63184 C 40.49113 31.49124 40.48265 30.90008 40.69622 30.7541 C 40.65381 30.69288 41.31826 30.20986 41.29095 30.20499 C 41.77067 30.01679 42.51027 29.92177 42.85123 30.41185 C 42.86226 30.34996 43.08023 30.81044 42.93571 30.90933 C 42.97439 30.96483 42.93096 31.03042 42.92367 31.13015 L 42.92588 32.24805 C 42.91723 32.25394 42.92622 32.43288 42.93843 32.45189 C 42.895 32.48166 42.85989 33.06794 42.85616 33.1818 L 42.84937 33.39909 C 42.809 33.4265 42.84275 33.90565 42.84055 34.02473 C 42.75031 34.24202 42.74182 34.36816 42.64615 34.53701 C 42.55981 34.68955 42.37779 34.83335 42.23072 35.02053 C 42.01953 35.37943 41.91978 35.40382 41.59816 35.62161 Z M 41.62222 32.62979 C 41.58219 33.00618 41.66565 33.15586 41.55335 33.45371 C 41.61221 33.53831 41.40238 33.97692 41.34284 34.07413 L 41.3403 34.08658 L 41.06312 34.28739 L 40.53862 33.53377 C 40.56797 33.51342 40.55474 33.40393 40.66296 33.24416 L 40.66635 33.25576 L 40.9325 32.56167 L 41.10095 32.29191 L 41.09942 32.29477 L 41.22139 32.05393 L 41.36626 31.95453 L 41.55438 32.04131 C 41.53606 32.21672 41.5973 32.41821 41.62223 32.62978 Z M 38.15544 36.52539 C 38.01753 36.24369 38.11015 35.52185 38.09658 35.2541 C 38.08946 35.05598 38.21176 34.64982 38.2311 34.52453 L 38.23347 34.52285 C 38.25128 34.41336 38.39021 33.83028 38.36561 33.79496 L 38.42803 33.71726 L 38.51064 33.69556 L 38.61089 33.81968 L 38.91148 34.27158 C 38.99172 34.4549 39.17305 34.60273 38.9661 34.95255 C 38.93591 35.02924 38.95321 35.14646 38.83226 35.38831 C 38.82683 35.39218 38.73438 35.5607 38.64414 35.76891 C 38.58545 35.90379 38.54541 36.05314 38.47027 36.19306 C 38.39665 36.33046 38.31862 36.45526 38.2433 36.53716 C 38.19139 36.56928 38.17765 36.57063 38.15543 36.52539 Z" class="color-1" />  <path id="svg_11" fill="#004b9d" fill-rule="evenodd" stroke="none" d="M 49.61852 65.33443 L 49.61852 64.32198 C 50.19883 64.31357 50.59238 64.23755 50.7995 64.09611 C 51.00662 63.95484 51.11027 63.6955 51.11027 63.31995 L 51.11027 58.91947 C 51.11027 58.51432 51.02325 58.25078 50.85107 58.12834 C 50.67923 58.00389 50.26906 57.93644 49.61852 57.92366 L 49.61852 56.97444 C 50.20698 56.96603 50.72809 56.92163 51.18491 56.84141 C 51.64156 56.76136 52.04664 56.34326 52.40304 56.18281 L 53.5389 56.18281 L 53.5389 63.31994 C 53.5389 63.69499 53.64645 63.95533 53.85984 64.0961 C 54.07493 64.23771 54.48561 64.31356 55.09273 64.32197 L 55.09273 65.33442 L 49.61852 65.33442 Z" class="color-1" />  <path id="svg_12" fill="#004b9d" fill-rule="evenodd" stroke="none" d="M 67.66114 61.50628 C 67.26216 61.75082 66.85369 61.93161 66.43758 62.04648 C 66.02402 62.16337 65.58077 62.22088 65.10783 62.22088 C 64.05696 62.22088 63.1976 61.95498 62.53281 61.42538 C 61.86565 60.89578 61.53334 60.21111 61.53334 59.37306 C 61.53334 58.46269 61.92468 57.72471 62.70771 57.16113 C 63.49073 56.59537 64.51718 56.31248 65.78518 56.31248 C 67.18346 56.31248 68.26164 56.68685 69.02007 57.43762 C 69.7807 58.1862 70.16 59.25398 70.16 60.63627 C 70.16 62.123 69.74135 63.2779 68.90184 64.10115 C 68.06233 64.92406 66.88796 65.3346 65.37399 65.3346 C 64.39165 65.3346 63.58657 65.16877 62.95401 64.83914 C 62.32128 64.50934 62.00593 64.10738 62.00593 63.63311 C 62.00593 63.33745 62.10941 63.10351 62.31636 62.9291 C 62.52314 62.7547 62.79863 62.66758 63.14603 62.66758 C 63.68767 62.66758 64.07154 62.99284 64.29071 63.64589 C 64.32023 63.7288 64.34245 63.79053 64.35721 63.82669 C 64.4137 64.0053 64.50733 64.12656 64.63286 64.19249 C 64.76076 64.25623 64.97501 64.28819 65.27305 64.28819 C 66.014 64.28819 66.59754 64.04147 67.02094 63.54802 C 67.44689 63.05457 67.66113 62.37411 67.66113 61.50629 Z M 67.53069 59.28813 C 67.53069 58.72657 67.38531 58.29266 67.0949 57.9864 C 66.80432 57.67795 66.39313 57.52491 65.86388 57.52491 C 65.31003 57.52491 64.88137 57.67594 64.57637 57.98001 C 64.27103 58.28206 64.11836 58.71177 64.11836 59.2624 C 64.11836 59.7984 64.26611 60.22154 64.5589 60.53217 C 64.85202 60.84062 65.251 60.99585 65.75532 60.99585 C 66.33903 60.99585 66.77973 60.85121 67.08015 60.55992 C 67.3804 60.26846 67.53069 59.84515 67.53069 59.28813 Z" class="color-1" />  <path id="svg_13" fill="#004b9d" fill-rule="evenodd" stroke="none" d="M 98.31848 61.50628 C 97.91967 61.75082 97.51103 61.93161 97.09509 62.04648 C 96.68136 62.16337 96.23811 62.22088 95.76551 62.22088 C 94.7143 62.22088 93.85511 61.95498 93.19032 61.42538 C 92.52316 60.89578 92.19101 60.21111 92.19101 59.37306 C 92.19101 58.46269 92.58218 57.72471 93.36538 57.16113 C 94.14806 56.59537 95.17468 56.31248 96.44268 56.31248 C 97.84096 56.31248 98.91931 56.68685 99.6774 57.43762 C 100.43837 58.1862 100.8175 59.25398 100.8175 60.63627 C 100.8175 62.123 100.39885 63.2779 99.55934 64.10115 C 98.71983 64.92406 97.54546 65.3346 96.03132 65.3346 C 95.04915 65.3346 94.24407 65.16877 93.61151 64.83914 C 92.97878 64.50934 92.66343 64.10738 92.66343 63.63311 C 92.66343 63.33745 92.76691 63.10351 92.97369 62.9291 C 93.18064 62.7547 93.45612 62.66758 93.80336 62.66758 C 94.345 62.66758 94.72904 62.99284 94.94821 63.64589 C 94.97773 63.7288 94.99995 63.79053 95.01471 63.82669 C 95.0712 64.0053 95.16467 64.12656 95.29036 64.19249 C 95.41843 64.25623 95.63251 64.28819 95.93038 64.28819 C 96.6715 64.28819 97.25504 64.04147 97.67844 63.54802 C 98.10439 63.05457 98.31846 62.37411 98.31846 61.50629 Z M 98.1882 59.28813 C 98.1882 58.72657 98.04299 58.29266 97.75224 57.9864 C 97.46183 57.67795 97.05064 57.52491 96.52139 57.52491 C 95.96754 57.52491 95.53905 57.67594 95.23388 57.98001 C 94.92854 58.28206 94.7757 58.71177 94.7757 59.2624 C 94.7757 59.7984 94.92362 60.22154 95.21657 60.53217 C 95.50953 60.84062 95.90833 60.99585 96.41299 60.99585 C 96.99653 60.99585 97.43723 60.85121 97.73765 60.55992 C 98.03773 60.26846 98.18819 59.84515 98.18819 59.28813 Z" class="color-1" />  <path id="svg_14" fill="#004b9d" fill-rule="evenodd" stroke="none" d="M 76.60179 65.3346 C 77.32273 62.41328 78.34273 62.10332 80.90757 61.0907 C 82.17218 60.5912 82.56132 59.63425 82.56132 58.87188 C 82.56132 58.41073 82.27566 58.05468 81.99933 57.80208 C 81.723 57.5493 81.33488 57.42182 80.83429 57.42182 C 80.44091 57.42182 80.09995 57.50339 79.81378 57.66367 C 79.52744 57.82395 79.38546 58.0039 79.38546 58.19967 C 79.38546 58.23045 79.44517 58.34683 79.56985 58.55117 C 79.69402 58.75534 79.75628 58.96187 79.75628 59.17277 C 79.75628 59.46272 79.64195 59.698 79.41023 59.87375 C 79.17885 60.0495 78.87249 60.13712 78.48675 60.13712 C 78.11339 60.13712 77.81721 60.02511 77.60059 59.80345 C 77.38414 59.57943 77.2771 59.27603 77.2771 58.89611 C 77.2771 57.02593 79.7366 56.1825 81.22394 56.1825 C 82.44411 56.1825 83.57471 56.48506 84.30447 56.98002 C 85.72786 57.94606 85.77162 60.4185 84.19319 61.30095 C 82.90771 62.01959 79.25519 62.00698 79.20294 63.2453 C 79.19056 63.53979 79.2942 63.90373 80.02243 63.87548 C 80.66602 63.85042 83.45223 63.83444 83.925 63.47369 C 84.21999 63.24883 84.42287 62.86622 84.65188 62.38286 L 85.55297 62.38454 L 85.75042 65.33462 L 76.6018 65.33462 Z" class="color-1" />  <path id="svg_15" fill="#004b9d" fill-rule="evenodd" stroke="none" d="M 123.35319 52.4433 C 123.42104 52.5839 123.49602 52.71054 123.57439 52.81969 C 123.65547 52.93019 123.74691 53.03009 123.85055 53.11653 C 124.01136 53.25848 124.19321 53.3725 124.39778 53.45508 C 124.60032 53.54102 124.82084 53.61603 125.05494 53.68179 C 125.54179 53.81381 126.06714 53.94701 126.63133 54.08358 C 127.1957 54.21981 127.81316 54.36613 128.48847 54.52102 C 128.91832 54.62597 129.23791 54.67188 129.44384 54.65842 C 129.65096 54.64682 129.98649 54.56121 130.44874 54.40497 L 131.70012 53.98166 C 131.84872 53.93121 131.96865 53.8604 132.06212 53.7679 C 132.15491 53.67338 132.20987 53.538 132.22598 53.35939 C 132.23175 53.28068 132.21886 53.12124 132.18781 52.88159 C 132.15863 52.64126 132.12929 52.46904 132.10079 52.35939 L 132.58441 52.19575 L 134.2653 57.02694 L 133.78185 57.19075 C 133.73401 57.08059 133.65954 56.92115 133.56218 56.7158 C 133.46227 56.51095 133.38084 56.37254 133.31723 56.2982 C 133.19883 56.16988 133.07635 56.09689 132.94624 56.07771 C 132.81715 56.06056 132.67415 56.07872 132.51724 56.13186 L 130.96239 56.65776 C 130.82668 56.70367 130.70641 56.74673 130.60396 56.78608 C 130.5015 56.82543 130.41957 56.86933 130.35782 56.91625 C 130.28946 56.97192 130.20498 57.05635 130.10812 57.1665 C 130.00905 57.27716 129.88115 57.42062 129.72679 57.59705 C 129.27692 58.10227 128.85216 58.58478 128.45183 59.0498 C 128.05421 59.51415 127.68051 59.95361 127.33395 60.36784 C 127.15363 60.58547 127.01996 60.78745 126.9287 60.97481 C 126.84049 61.16368 126.77739 61.34397 126.7421 61.52191 C 126.71716 61.65427 126.71699 61.80395 126.73752 61.97213 C 126.76042 62.13981 126.78841 62.28915 126.82471 62.41983 L 126.34092 62.5833 L 124.60728 57.60142 L 125.09124 57.43761 C 125.26325 57.8917 125.40184 58.18821 125.5082 58.32998 C 125.61727 58.4731 125.71719 58.5281 125.80828 58.49715 C 125.85289 58.48218 125.93296 58.41995 126.05052 58.31467 C 126.16587 58.21023 126.34093 58.03179 126.57485 57.78456 C 126.79537 57.55314 127.09393 57.22536 127.4739 56.79767 C 127.85371 56.36998 128.29526 55.86056 128.79771 55.26738 C 127.28052 54.91336 126.2232 54.67521 125.62558 54.5521 C 125.03051 54.42849 124.67666 54.38695 124.56436 54.42495 C 124.42204 54.47322 124.34587 54.59481 124.32857 54.79007 C 124.31415 54.98651 124.36351 55.2783 124.4753 55.66832 L 123.99168 55.83196 L 122.86939 52.60691 L 123.35318 52.44327 Z M 90.23618 124.80538 C 90.11337 124.84255 89.93847 124.90562 89.71202 124.99643 C 89.48285 125.08573 89.30032 125.20195 89.16326 125.34103 C 89.01924 125.47928 88.94036 125.69253 88.92883 125.98096 C 88.91509 126.26737 88.96411 126.68951 89.07285 127.23728 L 89.73679 130.59015 C 89.93204 131.57637 89.74985 132.43494 89.18888 133.1672 C 88.62824 133.89913 87.78687 134.37491 86.66933 134.58985 C 85.36486 134.84061 84.29651 134.74508 83.4687 134.3031 C 82.63869 133.86162 82.12148 133.12078 81.91622 132.0836 L 81.0036 127.47424 C 80.97459 127.32658 80.92048 127.20397 80.84228 127.10895 C 80.76221 127.01611 80.63329 126.94178 80.45365 126.88863 C 80.33016 126.85365 80.18512 126.83666 80.01549 126.8333 C 79.84586 126.83212 79.7093 126.83364 79.60328 126.8407 L 79.50523 126.34591 L 84.28564 125.42444 L 84.38369 125.91974 C 84.24663 125.95506 84.11041 125.99744 83.97267 126.0484 C 83.83476 126.09919 83.69837 126.16175 83.55961 126.23609 C 83.40711 126.31951 83.31398 126.42513 83.27989 126.55345 C 83.24851 126.68345 83.24647 126.82237 83.27582 126.97105 L 84.17657 131.51953 C 84.35333 132.41258 84.68275 133.02627 85.16383 133.35473 C 85.64677 133.68319 86.26882 133.77451 87.03182 133.62769 C 87.78193 133.48373 88.32595 133.14635 88.66368 132.61507 C 89.00159 132.08378 89.0842 131.38062 88.91168 130.50809 L 88.30643 127.45273 C 88.19922 126.91018 88.08082 126.51108 87.95309 126.25696 C 87.8257 126.00267 87.67014 125.83146 87.49237 125.74182 C 87.36226 125.67219 87.15175 125.62493 86.85896 125.60021 C 86.56651 125.57784 86.36397 125.56943 86.24828 125.57364 L 86.14769 125.0659 L 90.13558 124.29748 L 90.23617 124.80539 Z M 101.99731 119.67314 C 101.89095 119.73638 101.74269 119.83089 101.55219 119.95686 C 101.36084 120.08115 101.20953 120.24277 101.09995 120.44139 C 101.00343 120.61479 100.98426 120.84267 101.04278 121.13043 C 101.10215 121.41499 101.24888 121.80669 101.48332 122.30585 L 104.28633 128.27563 L 103.20967 128.7679 L 94.94534 124.71135 L 96.78382 128.62696 C 97.01147 129.112 97.21774 129.46669 97.40145 129.68987 C 97.5872 129.91187 97.78058 130.05012 97.98193 130.09939 C 98.13036 130.13639 98.33714 130.13454 98.60295 130.09586 C 98.86826 130.05516 99.07589 130.01362 99.22567 129.9746 L 99.44059 130.43172 L 95.78976 132.10042 L 95.57484 131.64297 C 95.72395 131.56022 95.88781 131.45124 96.06762 131.313 C 96.24641 131.17778 96.38229 131.03045 96.47219 130.87455 C 96.57329 130.68972 96.59891 130.47091 96.54971 130.21309 C 96.49933 129.95813 96.34683 129.56021 96.0917 129.01648 L 94.23422 125.06051 C 94.14211 124.86391 94.02371 124.69118 93.88088 124.54486 C 93.73822 124.39837 93.57164 124.29141 93.38301 124.22649 C 93.18166 124.15501 92.97589 124.12239 92.7591 124.12894 C 92.54316 124.13281 92.31144 124.16544 92.06361 124.22783 L 91.84886 123.77004 L 95.03999 122.3119 L 102.27923 125.86474 L 100.79189 122.6972 C 100.55576 122.19366 100.34491 121.83426 100.16272 121.62016 C 99.97986 121.40388 99.78648 121.27085 99.58326 121.22241 C 99.42381 121.18322 99.21719 121.18507 98.95799 121.22308 C 98.70218 121.2621 98.49812 121.30162 98.34646 121.34165 L 98.13713 120.8963 L 101.78813 119.22777 L 101.99729 119.67312 Z M 112.62479 123.02551 L 108.37651 125.9031 L 108.08729 125.48769 C 108.17991 125.41369 108.31494 125.30639 108.49305 125.16411 C 108.67269 125.02368 108.78702 124.91419 108.83859 124.83616 C 108.93511 124.69337 108.97616 124.56068 108.96514 124.43942 C 108.95377 124.32119 108.89864 124.19186 108.80501 124.05714 L 105.06326 118.6844 C 104.97844 118.56247 104.87938 118.47098 104.76946 118.41144 C 104.65869 118.34972 104.51416 118.33744 104.33808 118.3736 C 104.22765 118.39479 104.07481 118.44474 103.87922 118.52362 C 103.68431 118.5993 103.52045 118.6728 103.3883 118.74074 L 103.09891 118.32516 L 107.34736 115.44757 L 107.63658 115.86315 C 107.53718 115.94657 107.41216 116.05286 107.26356 116.1832 C 107.11683 116.31169 106.99876 116.43194 106.91208 116.54193 C 106.80453 116.68438 106.75992 116.81926 106.78214 116.94893 C 106.80436 117.07843 106.85797 117.20625 106.94414 117.3302 L 110.68318 122.69907 C 110.7719 122.82638 110.87232 122.91956 110.98394 122.97808 C 111.09742 123.03543 111.24178 123.04771 111.41786 123.01155 C 111.51455 122.99423 111.66196 122.94007 111.85619 122.85127 C 112.05313 122.76348 112.21191 122.68275 112.33557 122.60993 L 112.62479 123.02551 Z M 116.57909 107.33684 C 116.48613 107.44582 116.40471 107.55918 116.34025 107.67758 C 116.27443 107.79733 116.221 107.93322 116.17859 108.08929 C 116.12142 108.29699 116.09971 108.47947 116.11447 108.63924 C 116.12906 108.79868 116.17842 108.9899 116.26052 109.21392 C 116.3757 109.51816 116.54991 109.96048 116.78197 110.53902 C 117.01538 111.11588 117.28035 111.77465 117.57602 112.51162 C 117.84387 113.17325 118.13971 113.89458 118.46371 114.67881 C 118.78907 115.46119 119.10085 116.21078 119.39839 116.9274 L 118.45744 117.84164 C 116.96671 117.21045 115.4507 116.56951 113.90993 115.91915 C 112.36882 115.26896 111.29538 114.82176 110.68674 114.57521 C 110.46028 114.49061 110.27335 114.44251 110.1278 114.42872 C 109.98344 114.41678 109.79464 114.43898 109.56598 114.49667 C 109.40059 114.54258 109.26709 114.59152 109.16378 114.64871 C 109.05861 114.70421 108.93121 114.78763 108.77821 114.89947 L 108.41927 114.54023 L 112.01293 111.04777 L 112.36254 111.39725 C 112.06823 111.76439 111.88384 112.02726 111.80818 112.1877 C 111.73388 112.34646 111.72998 112.46234 111.79732 112.52995 C 111.83176 112.5646 111.87467 112.59453 111.92217 112.62312 C 111.97119 112.6502 112.04074 112.68501 112.12607 112.72941 C 112.49706 112.90247 113.11995 113.16954 113.99576 113.52911 C 114.87157 113.88868 116.19759 114.44688 117.96974 115.20521 C 117.51784 114.13255 117.13277 113.23076 116.81352 112.49832 C 116.49376 111.76589 116.21183 111.11805 115.96366 110.55834 C 115.84509 110.28521 115.72651 110.03748 115.60591 109.81599 C 115.48734 109.59618 115.38352 109.44229 115.29701 109.35568 C 115.19981 109.2583 115.04426 109.24434 114.83442 109.31801 C 114.62289 109.39319 114.30737 109.60358 113.886 109.95391 L 113.5179 109.58526 L 116.21065 106.96852 L 116.57909 107.33684 Z M 123.07483 100.40859 L 122.80732 100.83829 C 122.43854 100.76345 122.017 100.76042 121.54441 100.83526 C 121.07097 100.90741 120.72763 101.05776 120.51084 101.27943 C 120.41669 101.3758 120.30338 101.51976 120.17582 101.7125 C 120.04792 101.9054 119.9441 102.0682 119.86437 102.19619 L 119.157 103.33327 L 122.2304 105.19067 L 122.73251 104.38357 C 122.85906 104.17973 122.9493 103.98027 123.0046 103.78535 C 123.0582 103.58942 123.05837 103.38205 123.00511 103.16291 C 122.97186 103.02601 122.8728 102.84706 122.7108 102.62977 C 122.54575 102.41332 122.39172 102.24228 122.24753 102.119 L 122.51504 101.68913 L 125.82915 103.69201 L 125.56181 104.12171 C 125.39099 104.04973 125.15893 103.98733 124.86683 103.93267 C 124.57354 103.87986 124.35539 103.86742 124.21697 103.89533 C 124.00612 103.93384 123.8241 104.02365 123.67126 104.15954 C 123.51639 104.29425 123.37339 104.46967 123.237 104.68847 L 122.73506 105.49524 L 125.02866 106.88156 C 125.26937 107.02721 125.4692 107.12441 125.63102 107.17285 C 125.79353 107.22448 125.94179 107.2233 126.07614 107.17218 C 126.20404 107.1224 126.33042 107.02502 126.45103 106.87736 C 126.57401 106.73104 126.72108 106.5193 126.89377 106.24214 C 126.97367 106.11365 127.06781 105.95808 127.17655 105.77476 C 127.28511 105.59144 127.37231 105.42595 127.43761 105.27879 C 127.51666 105.11364 127.57824 104.951 127.62455 104.79241 C 127.67137 104.63651 127.67815 104.50314 127.64881 104.39432 C 127.57519 104.10622 127.41862 103.73639 127.17944 103.28852 C 126.94111 102.8383 126.75061 102.52346 126.60659 102.34048 L 126.86002 101.93331 L 129.2442 103.57914 L 124.66446 110.94231 L 124.22884 110.67877 C 124.28567 110.57063 124.35725 110.42179 124.44767 110.23006 C 124.53486 110.03884 124.58541 109.89807 124.60187 109.80439 C 124.62918 109.62898 124.61341 109.48972 124.55234 109.38511 C 124.48975 109.28252 124.38848 109.1875 124.247 109.1024 L 118.63929 105.71337 C 118.50358 105.63113 118.37992 105.58505 118.26712 105.57142 C 118.15347 105.55965 118.0142 105.61044 117.84711 105.72228 C 117.7416 105.79073 117.61692 105.90207 117.47103 106.05259 C 117.32667 106.20429 117.2198 106.32118 117.15314 106.40291 L 116.71735 106.13937 L 121.04501 99.18169 L 123.07483 100.40858 Z M 126.75382 92.1369 C 126.17317 91.91355 125.6853 91.91103 125.29074 92.12933 C 124.89431 92.34696 124.57828 92.7548 124.34317 93.34814 L 124.15301 93.82796 L 127.7996 95.23161 L 127.98246 94.77046 C 128.21859 94.1751 128.24386 93.65525 128.05846 93.2062 C 127.87271 92.75749 127.43896 92.40078 126.75382 92.1369 Z M 134.838 90.51933 L 133.53641 93.80274 C 132.4321 94.03281 131.54408 94.23228 130.87454 94.4092 C 130.20398 94.58276 129.41706 94.81923 128.51071 95.11338 L 128.37602 95.45361 L 131.00973 96.46707 C 131.15595 96.52358 131.28979 96.54393 131.41413 96.52778 C 131.53779 96.51348 131.66485 96.44167 131.79445 96.3157 C 131.85806 96.25246 131.93966 96.14365 132.03753 95.9938 C 132.13761 95.84462 132.21598 95.71344 132.27502 95.60093 L 132.75118 95.78425 L 130.93883 100.35711 L 130.46267 100.17396 C 130.4966 100.05152 130.54104 99.89074 130.59414 99.69027 C 130.64723 99.4898 130.67387 99.34331 130.67302 99.24812 C 130.66878 99.07086 130.6279 98.93631 130.54919 98.84432 C 130.46912 98.75434 130.35242 98.67866 130.19805 98.61896 L 124.07008 96.26055 C 123.92165 96.20337 123.79171 96.17932 123.67619 96.18487 C 123.56016 96.19244 123.43192 96.26644 123.29214 96.40737 C 123.18629 96.51618 123.08213 96.65191 122.9751 96.81235 C 122.86925 96.97599 122.78732 97.10347 122.731 97.19799 L 122.25467 97.01484 L 124.16083 92.20484 C 124.58695 91.12965 125.08176 90.3799 125.64325 89.95255 C 126.20473 89.52537 126.83102 89.44599 127.52227 89.71188 C 128.13023 89.94599 128.55245 90.30792 128.78569 90.79413 C 129.0191 91.28034 129.099 91.91674 129.02877 92.70148 C 129.49645 92.56576 130.03893 92.40632 130.65538 92.22351 C 131.27182 92.04053 131.90659 91.84796 132.55526 91.64446 C 132.76374 91.57971 133.02514 91.48553 133.34066 91.35788 C 133.65499 91.23208 133.87229 91.09686 133.99052 90.95038 C 134.05651 90.86864 134.12809 90.76101 134.20341 90.62613 C 134.28076 90.49226 134.33403 90.39404 134.36168 90.33602 L 134.83801 90.51934 Z M 136.11957 85.05695 C 136.04188 85.61565 135.89871 86.12541 135.69193 86.58623 C 135.48277 87.04923 135.26157 87.43454 135.02409 87.74383 L 135.41764 88.2477 L 135.34097 88.79984 L 131.99751 88.4295 L 132.07452 87.87753 C 132.40734 87.79512 132.76255 87.68227 133.14015 87.53679 C 133.51572 87.39098 133.8599 87.21203 134.17304 86.99524 C 134.50026 86.77374 134.77625 86.51424 135.00136 86.2142 C 135.22833 85.91685 135.37201 85.55207 135.43206 85.11833 C 135.51297 84.53777 135.43087 84.07157 135.18728 83.72158 C 134.94165 83.37395 134.60086 83.16961 134.16338 83.11058 C 133.80563 83.06214 133.48519 83.15313 133.20428 83.38303 C 132.9232 83.6131 132.65569 83.99202 132.3987 84.51977 C 132.23093 84.86555 132.07589 85.18157 131.93425 85.46815 C 131.79227 85.75725 131.65062 86.02567 131.50915 86.27912 C 131.17531 86.85682 130.7587 87.26483 130.2554 87.49844 C 129.75414 87.7344 129.21776 87.81378 128.64932 87.73726 C 128.28919 87.68866 127.95349 87.56521 127.64153 87.36474 C 127.32992 87.16645 127.06359 86.90089 126.84036 86.56924 C 126.63052 86.25323 126.47887 85.86439 126.38456 85.40324 C 126.28821 84.94175 126.27684 84.45133 126.34928 83.93199 C 126.41985 83.4261 126.5564 82.96242 126.76234 82.54163 C 126.96556 82.12017 127.15623 81.79103 127.33587 81.55844 L 126.99932 81.11377 L 127.07616 80.56163 L 130.22946 80.93314 L 130.15262 81.48528 C 129.7969 81.56887 129.42948 81.67129 129.05238 81.79692 C 128.67495 81.92222 128.35383 82.06618 128.09379 82.22763 C 127.8139 82.40187 127.57777 82.61781 127.391 82.87177 C 127.20423 83.1232 127.0838 83.43518 127.03257 83.80316 C 126.96828 84.26566 127.04919 84.66021 127.27311 84.9875 C 127.49669 85.31646 127.80491 85.50752 128.19608 85.56016 C 128.56503 85.61011 128.88462 85.5235 129.15349 85.30099 C 129.42456 85.07647 129.68631 84.70748 129.93872 84.1925 C 130.09207 83.88977 130.24575 83.5825 130.39825 83.26599 C 130.55295 82.95183 130.69799 82.67231 130.83353 82.42962 C 131.16465 81.84031 131.56549 81.41464 132.03962 81.14807 C 132.51103 80.88369 133.06437 80.79304 133.69964 80.87864 C 134.09963 80.93246 134.4735 81.07659 134.82125 81.31104 C 135.16883 81.54549 135.4455 81.83493 135.65058 82.18189 C 135.87653 82.5603 136.03225 82.98529 136.11639 83.45419 C 136.20256 83.9256 136.20307 84.45908 136.11961 85.05696 Z M 136.74076 73.68483 L 136.59895 78.76426 L 136.08768 78.7503 C 136.08191 78.63291 136.07326 78.46237 136.06173 78.23667 C 136.05223 78.0108 136.02967 77.8554 135.99625 77.76795 C 135.93569 77.60717 135.85138 77.4965 135.74519 77.43377 C 135.64171 77.37356 135.50346 77.3411 135.33756 77.33639 L 128.72919 77.15694 C 128.57907 77.15307 128.44573 77.17813 128.33242 77.23044 C 128.21639 77.28258 128.12157 77.39038 128.04727 77.55217 C 127.99977 77.65257 127.95058 77.80394 127.90003 78.00609 C 127.84761 78.20572 127.81114 78.37962 127.78909 78.5251 L 127.27799 78.51097 L 127.41997 73.43188 L 127.93107 73.44567 C 127.94091 73.57416 127.95431 73.73612 127.97365 73.93155 C 127.99265 74.12429 128.02183 74.28877 128.06067 74.42281 C 128.11444 74.59217 128.19858 74.70721 128.31817 74.76573 C 128.43759 74.82426 128.57347 74.85688 128.7258 74.86092 L 135.32993 75.0402 C 135.48684 75.04457 135.62204 75.01935 135.73586 74.96502 C 135.84951 74.90834 135.94451 74.80037 136.01881 74.63858 C 136.06139 74.55129 136.10363 74.40195 136.14536 74.19525 C 136.18946 73.9862 136.21661 73.8123 136.2295 73.67103 L 136.74077 73.68482 Z M 129.07269 63.2256 L 129.13613 63.72577 C 128.75887 63.90589 128.36532 64.17061 127.95294 64.51992 C 127.54039 64.86705 127.33225 65.16893 127.32801 65.42137 C 127.3275 65.55962 127.33547 65.73015 127.34786 65.93365 C 127.35956 66.13496 127.37483 66.3092 127.39366 66.45619 L 127.43166 66.75673 L 134.68345 65.86402 C 134.83934 65.84485 134.97369 65.79927 135.08684 65.72981 C 135.19998 65.66001 135.27971 65.53876 135.32823 65.36805 C 135.35588 65.26647 135.37641 65.10804 135.39049 64.8968 C 135.40627 64.68321 135.41339 64.50426 135.41254 64.3571 L 135.91991 64.29454 L 136.56163 69.3632 L 136.05409 69.4256 C 136.02508 69.30451 135.98539 69.13095 135.93246 68.91012 C 135.87953 68.6893 135.83153 68.54147 135.78793 68.46444 C 135.69548 68.30652 135.5881 68.20611 135.46529 68.16558 C 135.34044 68.12505 135.19897 68.11361 135.03663 68.13363 L 127.71987 69.03424 L 127.75804 69.33478 C 127.77653 69.48177 127.80537 69.65433 127.84387 69.85228 C 127.88272 70.05242 127.91766 70.21976 127.95243 70.35346 C 128.01943 70.59716 128.29644 70.83934 128.78278 71.07597 C 129.26963 71.31462 129.71712 71.47591 130.12763 71.55882 L 130.19107 72.05899 L 127.54735 72.38442 L 126.42896 63.55101 L 129.07268 63.22558 Z" class="color-1" />  <path id="svg_16" fill="#004b9d" fill-rule="evenodd" stroke="none" d="M 15.17208 55.81904 C 15.38975 55.18197 15.69792 54.6194 16.09892 54.13201 C 16.49898 53.64647 16.96817 53.26352 17.50879 52.98333 C 18.03872 52.70667 18.62989 52.54841 19.28518 52.50704 C 19.94064 52.46584 20.61408 52.55884 21.30262 52.78757 C 21.98912 53.01562 22.58419 53.34425 23.088 53.77497 C 23.58994 54.20299 23.98468 54.70283 24.26644 55.26994 C 24.54396 55.82898 24.69832 56.43779 24.72716 57.10077 C 24.75837 57.76442 24.65914 58.42907 24.43064 59.09759 C 24.2661 59.57943 24.05609 59.99989 23.79893 60.35778 C 23.54397 60.71618 23.29359 61.00629 23.05102 61.23148 L 23.26272 61.72644 L 23.0824 62.25436 L 19.8392 61.23316 L 20.02376 60.69246 C 21.11636 60.71483 21.96724 60.58684 22.57741 60.31102 C 23.18537 60.0347 23.5952 59.59002 23.80657 58.97179 C 24.06916 58.20286 23.92446 57.5039 23.37265 56.8749 C 22.82084 56.2459 21.9228 55.7237 20.67753 55.30997 C 19.97406 55.0762 19.34897 54.94552 18.80513 54.91642 C 18.26129 54.88766 17.80023 54.93509 17.4211 55.05399 C 17.02382 55.18568 16.69606 55.38951 16.43721 55.66298 C 16.18023 55.93678 15.98412 56.26843 15.8496 56.66232 C 15.654 57.23447 15.63941 57.79637 15.80363 58.34801 C 15.9671 58.90166 16.30569 59.46911 16.82219 60.04917 L 16.31645 60.46912 C 16.01113 60.17144 15.75254 59.86165 15.5422 59.5421 C 15.3299 59.22205 15.16999 58.87946 15.06282 58.51485 C 14.94549 58.1166 14.88876 57.70119 14.89307 57.2661 C 14.8965 56.83337 14.99041 56.35119 15.1721 55.81906 Z M 15.01503 84.38203 C 15.43769 84.52616 15.90241 84.60924 16.41613 84.63296 C 16.92762 84.65701 17.49827 84.63128 18.13049 84.55358 C 18.66653 84.48732 19.18476 84.3859 19.6828 84.24867 C 20.18067 84.1116 20.61612 83.9266 20.98931 83.69804 C 21.3642 83.4646 21.65156 83.18206 21.85121 82.84754 C 22.05307 82.51303 22.12517 82.12099 22.06783 81.66674 C 21.96944 80.89008 21.52093 80.34584 20.72197 80.0342 C 19.92351 79.72458 18.84329 79.65243 17.47928 79.82044 C 16.89836 79.89192 16.35884 80.00292 15.85376 80.15428 C 15.35065 80.30531 14.92098 80.49872 14.56001 80.73468 C 14.19723 80.97535 13.92553 81.25604 13.7471 81.57895 C 13.56856 81.90169 13.50794 82.27909 13.56288 82.71367 C 13.61664 83.13698 13.7719 83.48781 14.02839 83.76598 C 14.28489 84.04163 14.61379 84.24866 15.01506 84.38203 Z M 21.85035 85.21638 C 21.48869 85.71538 21.03103 86.13499 20.47259 86.47102 C 19.91399 86.80722 19.2587 87.02165 18.50214 87.11499 C 17.82785 87.1979 17.17273 87.16477 16.5372 87.01778 C 15.8993 86.86928 15.33586 86.61313 14.84228 86.24835 C 14.33009 85.86355 13.91054 85.38709 13.57926 84.82385 C 13.25041 84.26044 13.03374 83.56753 12.92957 82.74462 C 12.84552 82.07997 12.87717 81.43869 13.02273 80.82129 C 13.17084 80.20373 13.42742 79.64385 13.79115 79.1425 C 14.14855 78.64603 14.60464 78.23129 15.16343 77.89711 C 15.72223 77.56327 16.36192 77.35086 17.08978 77.26138 C 17.84397 77.16854 18.54777 77.21076 19.19407 77.38987 C 19.84037 77.56882 20.41254 77.85506 20.90702 78.24642 C 21.39454 78.63425 21.7925 79.11794 22.10055 79.69497 C 22.41098 80.27183 22.60843 80.90285 22.69528 81.58937 C 22.78145 82.2695 22.74871 82.92221 22.59944 83.54667 C 22.44847 84.17348 22.19775 84.72798 21.85034 85.21638 Z M 26.86621 97.87644 C 26.8087 97.76813 26.72219 97.61643 26.60616 97.42151 C 26.49217 97.22558 26.33763 97.06665 26.14323 96.94707 C 25.97377 96.84162 25.74408 96.80899 25.44926 96.84919 C 25.15749 96.89056 24.75275 97.01132 24.23283 97.21196 L 18.01834 99.61091 L 17.58578 98.52176 L 22.19588 90.63235 L 18.11961 92.20569 C 17.61427 92.40095 17.24329 92.58225 17.00648 92.74976 C 16.77023 92.91912 16.61856 93.10109 16.55631 93.29601 C 16.50975 93.43997 16.49911 93.64364 16.52196 93.90786 C 16.5472 94.17106 16.57648 94.37826 16.60693 94.52795 L 16.13098 94.71177 L 14.6643 91.01799 L 15.14042 90.83417 C 15.21509 90.9857 15.31553 91.15372 15.4445 91.33888 C 15.57038 91.52304 15.71147 91.66566 15.86358 91.76371 C 16.0447 91.87437 16.26457 91.91289 16.52839 91.87992 C 16.78951 91.84561 17.20173 91.71964 17.76762 91.50101 L 21.88562 89.91136 C 22.09003 89.83248 22.27204 89.7267 22.42929 89.59484 C 22.58637 89.46299 22.7046 89.30574 22.78179 89.12376 C 22.8661 88.92985 22.91173 88.72954 22.91817 88.51545 C 22.92784 88.30287 22.90867 88.07296 22.86083 87.8254 L 23.33716 87.64141 L 24.6189 90.87016 L 20.58114 97.78092 L 23.87863 96.50795 C 24.40279 96.30563 24.77921 96.11995 25.00703 95.95362 C 25.23705 95.78662 25.38361 95.60414 25.44519 95.4072 C 25.49455 95.25264 25.50507 95.04914 25.48234 94.79182 C 25.45859 94.53753 25.43111 94.33437 25.39973 94.18267 L 25.86334 94.00372 L 27.32998 97.69733 L 26.8662 97.87644 Z M 29.03615 110.55163 C 28.95116 110.44517 28.87398 110.35452 28.80206 110.27682 C 28.732 110.19744 28.63056 110.10662 28.50249 110.00369 C 28.35576 109.88378 28.21344 109.83685 28.07247 109.85754 C 27.93083 109.88125 27.798 109.9307 27.67689 110.00705 L 26.76257 110.58358 C 26.5775 110.70013 26.43128 110.79515 26.32034 110.87033 C 26.2094 110.94534 26.07505 111.03801 25.91373 111.15018 C 25.45521 110.92751 24.89831 110.52017 24.24149 109.93423 C 23.58552 109.34526 23.06458 108.75511 22.67799 108.1589 C 22.3143 107.59818 22.06087 107.01812 21.91685 106.41839 C 21.77164 105.81714 21.75129 105.22363 21.85884 104.63381 C 21.96215 104.04618 22.19963 103.48446 22.57011 102.95182 C 22.94245 102.41767 23.45729 101.94374 24.11495 101.52917 C 24.72698 101.14336 25.3592 100.88672 26.00991 100.75705 C 26.66198 100.62974 27.29674 100.63596 27.91777 100.77723 C 28.53252 100.91228 29.11317 101.18389 29.66278 101.58803 C 30.21035 101.99318 30.69533 102.51959 31.11568 103.16793 C 31.40066 103.60756 31.6105 104.05004 31.74179 104.49488 C 31.87495 104.93804 31.95654 105.32267 31.98996 105.64524 L 32.51429 105.7924 L 32.81861 106.26196 L 29.97947 108.11465 L 29.66769 107.63415 C 30.3525 106.81393 30.77777 106.07864 30.94723 105.42861 C 31.11618 104.78145 31.00932 104.16136 30.62764 103.57272 C 30.17591 102.87577 29.51672 102.53302 28.65057 102.54362 C 27.78273 102.55539 26.80548 102.9037 25.71712 103.58971 C 24.5609 104.31861 23.77839 105.07425 23.36635 105.85899 C 22.95431 106.64356 22.96907 107.377 23.41249 108.06066 C 23.62029 108.38105 23.85421 108.635 24.11138 108.82202 C 24.37143 109.00988 24.61044 109.13215 24.82825 109.18899 L 26.42127 108.18494 C 26.55324 108.10152 26.64892 108.007 26.70761 107.90441 C 26.76698 107.79896 26.78581 107.65584 26.7602 107.47235 C 26.74001 107.3304 26.6932 107.16828 26.62093 106.98294 C 26.54884 106.79727 26.48336 106.64708 26.42721 106.52767 L 26.85791 106.25606 L 29.46703 110.28015 L 29.03616 110.5516 Z M 34.14667 118.52732 C 34.56668 118.37562 34.98177 118.14891 35.39347 117.84871 C 35.80686 117.54716 36.23417 117.16993 36.6742 116.71584 C 37.04909 116.32869 37.38547 115.92724 37.68351 115.51065 C 37.98308 115.09272 38.20174 114.67798 38.34609 114.26644 C 38.4857 113.85355 38.52709 113.45547 38.46907 113.07033 C 38.41106 112.68536 38.21581 112.33638 37.88011 112.02003 C 37.30624 111.47949 36.60973 111.33721 35.78939 111.5952 C 34.97227 111.85269 34.08696 112.4716 33.136 113.45344 C 32.73177 113.87087 32.38317 114.29469 32.08852 114.72674 C 31.7959 115.15712 31.58488 115.57623 31.45613 115.98424 C 31.32958 116.39679 31.29905 116.78378 31.36758 117.14503 C 31.43611 117.50645 31.62915 117.83844 31.95044 118.14067 C 32.26324 118.43549 32.60844 118.61074 32.98571 118.66624 C 33.36128 118.72039 33.75058 118.67398 34.14667 118.52732 Z M 39.98661 114.90687 C 40.0263 115.51888 39.93894 116.13056 39.72164 116.73938 C 39.50553 117.34618 39.13369 117.92237 38.60698 118.4661 C 37.85873 119.23822 37.00582 119.73133 36.04807 119.94845 C 35.09185 120.16406 34.13173 120.06365 33.16686 119.64438 C 32.81572 120.02598 32.6164 120.45586 32.57196 120.934 C 32.52599 121.41349 32.65372 121.79375 32.95211 122.07478 C 33.13548 122.2475 33.30834 122.38894 33.46644 122.49809 C 33.62589 122.60556 33.77398 122.69924 33.91071 122.77576 L 33.51411 123.18528 C 33.26271 123.08908 32.92074 122.91064 32.4914 122.65298 C 32.06359 122.39364 31.65494 122.08217 31.26428 121.71419 C 30.73231 121.21318 30.44479 120.6427 30.40441 120.00529 C 30.36573 119.36654 30.59728 118.74662 31.10041 118.14722 C 30.69482 117.6827 30.38507 117.17967 30.16777 116.64199 C 29.95234 116.10263 29.83953 115.54662 29.8341 114.97295 C 29.83037 114.40685 29.93961 113.84294 30.16115 113.28121 C 30.3815 112.71797 30.7262 112.1956 31.1954 111.71123 C 31.72211 111.1675 32.29479 110.76201 32.91038 110.4978 C 33.52767 110.23224 34.1543 110.0977 34.78838 110.09282 C 35.41483 110.08962 36.03331 110.21643 36.64178 110.47173 C 37.25229 110.72535 37.80936 111.09131 38.31707 111.56928 C 38.81952 112.04288 39.21256 112.56895 39.49686 113.14582 C 39.78167 113.72588 39.94299 114.31182 39.98659 114.90685 Z M 42.62626 126.68515 L 38.28757 123.94345 L 38.56356 123.51896 C 38.66856 123.57463 38.82106 123.65536 39.02326 123.76232 C 39.22427 123.87097 39.37101 123.93218 39.46397 123.94883 C 39.63479 123.98062 39.77457 123.96666 39.88381 123.90948 C 39.98983 123.85297 40.0894 123.7529 40.1788 123.61533 L 43.746 118.12722 C 43.82708 118.0026 43.8739 117.8773 43.8873 117.75436 C 43.90172 117.6294 43.85677 117.49351 43.75465 117.34736 C 43.69206 117.25536 43.5862 117.13596 43.43659 116.98896 C 43.29003 116.84113 43.15788 116.72071 43.04304 116.62737 L 43.31886 116.20271 L 47.65755 118.94441 L 47.38156 119.36924 C 47.26485 119.31105 47.11727 119.23856 46.93797 119.1543 C 46.76036 119.07088 46.60244 119.0105 46.46622 118.97418 C 46.29133 118.93197 46.14782 118.94374 46.03518 119.01454 C 45.92271 119.08518 45.82433 119.18323 45.74206 119.3097 L 42.17723 124.79411 C 42.09241 124.92445 42.04475 125.05176 42.03321 125.17571 C 42.02354 125.30117 42.06832 125.43723 42.17061 125.58305 C 42.22421 125.66428 42.33227 125.7773 42.49037 125.91891 C 42.64898 126.06405 42.78604 126.1769 42.90207 126.26066 L 42.62625 126.68515 Z M 59.11895 124.91134 C 59.00089 124.8735 58.83142 124.82489 58.61005 124.76553 C 58.38953 124.70414 58.1668 124.69691 57.94272 124.74552 C 57.74696 124.78706 57.55969 124.92211 57.37717 125.15403 C 57.19821 125.38494 56.99431 125.75007 56.76497 126.25226 L 54.02422 132.25215 L 52.94247 131.77165 L 50.64276 122.95337 L 48.84483 126.88866 C 48.62193 127.37656 48.48538 127.76203 48.43449 128.04508 C 48.38598 128.32914 48.40684 128.56375 48.50031 128.74623 C 48.56918 128.88128 48.70607 129.03399 48.9098 129.20688 C 49.11472 129.37775 49.28248 129.50574 49.41039 129.59185 L 49.20038 130.05115 L 45.53225 128.42214 L 45.74226 127.9625 C 45.90324 128.01935 46.09408 128.0703 46.31765 128.1137 C 46.53834 128.15844 46.7402 128.16315 46.91849 128.12833 C 47.12646 128.08258 47.31102 127.9583 47.47607 127.75295 C 47.63841 127.54844 47.84383 127.17407 48.09336 126.62765 L 49.90978 122.652 C 49.99985 122.45455 50.05499 122.25341 50.07364 122.05075 C 50.09247 121.84809 50.0655 121.65418 49.99188 121.4712 C 49.91453 121.27426 49.80494 121.09952 49.65804 120.9421 C 49.51385 120.7835 49.3371 120.63231 49.12726 120.48818 L 49.33743 120.02837 L 52.54331 121.45253 L 54.55854 129.17662 L 56.01263 125.99311 C 56.24401 125.48722 56.38124 125.09468 56.42619 124.81886 C 56.47216 124.54086 56.44739 124.30927 56.35155 124.12612 C 56.27742 123.98165 56.1407 123.82861 55.94189 123.66042 C 55.74461 123.49527 55.58091 123.36913 55.4508 123.28218 L 55.65521 122.83448 L 59.32334 124.46366 L 59.11893 124.91136 Z M 69.69062 131.74003 C 69.55356 131.72927 69.4204 131.71581 69.31353 131.7148 C 69.207 131.7116 69.07045 131.72304 68.90675 131.74558 C 68.71761 131.77013 68.58597 131.84111 68.50557 131.95698 C 68.42669 132.07572 68.37326 132.20522 68.34781 132.34464 L 68.1546 133.39779 C 68.11541 133.61088 68.08658 133.78124 68.0669 133.91243 C 68.04739 134.04378 68.025 134.20389 67.99837 134.39679 C 67.52119 134.57674 66.83944 134.70238 65.95735 134.77873 C 65.07323 134.85239 64.28002 134.82767 63.57384 134.7017 C 62.9099 134.58313 62.30601 134.37206 61.762 134.06833 C 61.21646 133.76426 60.76134 133.37542 60.39578 132.89661 C 60.02937 132.42234 59.77289 131.86851 59.62887 131.23867 C 59.48502 130.60614 59.48265 129.91155 59.62175 129.15406 C 59.75101 128.44904 59.99002 127.81786 60.33641 127.25932 C 60.68484 126.70129 61.1213 126.24687 61.64886 125.89385 C 62.16692 125.54117 62.76385 125.30605 63.43831 125.18362 C 64.11192 125.06337 64.83303 125.07077 65.60095 125.20767 C 66.12172 125.30051 66.59347 125.45002 67.01348 125.65739 C 67.43383 125.86291 67.77479 126.06523 68.03755 126.26049 L 68.5037 125.98164 L 69.05976 126.08087 L 68.50659 129.39338 L 67.93713 129.29197 C 67.79311 128.23915 67.53561 127.43137 67.16751 126.86696 C 66.8011 126.30506 66.26744 125.96029 65.56991 125.83601 C 64.74499 125.68868 64.04169 125.93187 63.46036 126.56525 C 62.87886 127.20064 62.47344 128.14414 62.24325 129.39726 C 61.99898 130.72876 62.02866 131.80831 62.33214 132.63997 C 62.63527 133.47146 63.19048 133.95936 64.00065 134.10366 C 64.37995 134.17144 64.72803 134.17514 65.04202 134.11644 C 65.35838 134.05606 65.61182 133.96642 65.80231 133.84752 L 66.13886 132.01333 C 66.16685 131.86129 66.16159 131.72776 66.12512 131.61541 C 66.08712 131.50088 65.99349 131.38988 65.83963 131.28376 C 65.72021 131.20186 65.56822 131.12533 65.38094 131.05133 C 65.194 130.9775 65.0376 130.92267 64.91072 130.88197 L 65.00164 130.386 L 69.69435 131.23633 L 69.69062 131.74003 Z M 12.41987 74.2015 L 12.80265 69.24098 L 13.31253 69.27916 C 13.31311 69.38781 13.31431 69.54758 13.31626 69.75629 C 13.31579 69.96467 13.33165 70.10998 13.3616 70.18986 C 13.41402 70.3535 13.49269 70.47005 13.59529 70.54001 C 13.69799 70.60745 13.83203 70.64866 13.99745 70.6611 L 17.20836 70.90177 L 17.51166 66.97287 L 14.37454 66.73758 C 14.22465 66.72648 14.08793 66.74717 13.96685 66.8025 C 13.84356 66.85531 13.74349 66.95639 13.66485 67.10136 C 13.62483 67.18259 13.57617 67.31865 13.52076 67.51408 C 13.46714 67.71186 13.43013 67.87096 13.41148 67.99592 L 12.90165 67.95757 L 13.28444 62.99705 L 13.79425 63.03506 C 13.79035 63.14371 13.7914 63.30331 13.79993 63.51455 C 13.80831 63.72595 13.82558 63.88236 13.85413 63.97974 C 13.89784 64.1385 13.97684 64.25304 14.08614 64.32334 C 14.19779 64.39162 14.33172 64.43266 14.49056 64.4446 L 21.06901 64.93788 C 21.22338 64.94948 21.35264 64.93283 21.46222 64.88541 C 21.57146 64.84034 21.67155 64.73489 21.76281 64.57326 C 21.83083 64.45183 21.89461 64.29038 21.95517 64.09075 C 22.01776 63.89162 22.0561 63.74598 22.07188 63.65617 L 22.5818 63.69435 L 22.19928 68.65504 L 21.68903 68.61669 C 21.69073 68.48164 21.68055 68.32119 21.66155 68.13115 C 21.64001 67.94329 21.61762 67.79765 21.59607 67.69623 C 21.55095 67.52435 21.4702 67.40511 21.34909 67.34288 C 21.23018 67.27847 21.10007 67.24214 20.95944 67.23154 L 18.18239 67.02316 L 17.87943 70.95222 L 20.59151 71.15555 C 20.74367 71.16699 20.87564 71.14815 20.98489 71.10072 C 21.0921 71.05111 21.19235 70.94566 21.28582 70.7842 C 21.34604 70.67555 21.40677 70.52924 21.46614 70.34306 C 21.52755 70.15924 21.56826 70.01141 21.59014 69.90007 L 22.10006 69.93825 L 21.71754 74.89894 L 21.20746 74.86059 C 21.20933 74.721 21.20356 74.56543 21.18778 74.38901 C 21.172 74.21494 21.14826 74.05567 21.11636 73.91373 C 21.0709 73.74622 20.98998 73.62917 20.87345 73.5629 C 20.75505 73.49849 20.62307 73.45964 20.48007 73.44904 L 13.89249 72.95509 C 13.73607 72.94332 13.59962 72.96182 13.48569 73.00857 C 13.37178 73.05785 13.2716 73.16128 13.18517 73.31887 C 13.13487 73.41911 13.08275 73.56845 13.03197 73.76186 C 12.9833 73.95561 12.94838 74.11487 12.9299 74.23983 L 12.41987 74.20148 Z" class="color-1" /> </svg>